<svg xmlns="http://www.w3.org/2000/svg" viewBox="0 0 90.7 112.26"><defs><style>.cls-1{fill:#fff;}</style></defs><title>ico 1</title><g id="Capa_2" data-name="Capa 2"><g id="Capa_1-2" data-name="Capa 1"><path class="cls-1" d="M45.47,64.82H87.35c.4,0,.8,0,1.2,0a2,2,0,0,1,2.14,2.24,38.19,38.19,0,0,1-1.86,12.7c-5.61,17.1-17.18,27.92-34.8,31.5-14.84,3-28.12-1-39.37-11.12A44.32,44.32,0,0,1,.3,72.39,32.85,32.85,0,0,1,0,67.05a2,2,0,0,1,2.16-2.22c.4,0,.8,0,1.21,0Zm0,13.87H7.22c-1.54,0-1.57,0-1.06,1.53A41.16,41.16,0,0,0,51,107.78c16.57-2.5,27.74-12,33.61-27.72.51-1.36.47-1.37-.95-1.37Zm-.07-9.86h-40c-1.35,0-1.46.07-1.32,1.43.16,1.59.4,3.18.67,4.76.31,1.87.33,1.87,2.21,1.87H82.72c.55,0,1.1,0,1.64,0a1.17,1.17,0,0,0,1.43-1.1c.36-1.79.65-3.58.83-5.39.14-1.52.07-1.57-1.52-1.57Z"/><path class="cls-1" d="M75.46,20.07l6.71-5.74c.85-.73,1.67-1.68,3-1.11s1.38,1.87,1.37,3.09c0,4.05-1.22,7.53-4.86,9.79a10,10,0,0,1-2.51,1.08c-.52.15-.66.32-.27.8,2.67,3.26,2.79,6.85,1.22,10.58a42.53,42.53,0,0,1-6.35,9.78A93.75,93.75,0,0,1,62,60.83a5.24,5.24,0,0,1-5.91.93A5.11,5.11,0,0,1,52.79,57a87.94,87.94,0,0,1,3.49-26.64,12.2,12.2,0,0,1,3.78-6,9.36,9.36,0,0,1,6.37-2.18c1.26,0,1.28,0,.88-1.23C65,13.72,69.45,8.4,74.84,6.14c1.66-.7,3,.6,2.64,2.49-.65,3.33-1.33,6.64-2,10-.09.46-.16.92-.24,1.38ZM56.76,53.82c0,.87,0,1.75,0,2.62a1.61,1.61,0,0,0,1,1.69,1.67,1.67,0,0,0,1.81-.39,81.68,81.68,0,0,0,8-8.19c.46-.53.33-.78-.24-1-1.43-.64-2.84-1.31-4.27-2-.56-.26-1.1-.58-.75-1.31s.93-.54,1.5-.28c1.59.73,3.18,1.45,4.77,2.19.42.19.76.34,1.14-.13,1.58-1.91,3.06-3.89,4.46-5.94.35-.53.17-.76-.32-1s-1.17-.59-1.74-.92-1.22-.61-.81-1.4,1-.47,1.61-.17l1.92,1c.35.19.66.32.92-.14,1.5-2.68,2.32-6.25-.75-8.84a16.07,16.07,0,0,0-6.61-3.25c-3.85-.95-6.42.43-8,4.1-.12.3-.22.61-.36.91-.3.62-.14,1,.52,1.26,1.64.69,3.26,1.45,4.88,2.19.56.26,1.12.59.79,1.32s-1,.52-1.51.27c-1.44-.63-2.86-1.29-4.29-1.92-1.17-.51-1.2-.5-1.48.78A96.83,96.83,0,0,0,56.76,53.82ZM72.66,12.5a6.48,6.48,0,0,0-1.44,7.12Z"/><path class="cls-1" d="M35.59,40.07A17.27,17.27,0,0,1,33,49.94a1.66,1.66,0,0,0-.26,1.42,5.89,5.89,0,0,1-3.17,6.77A6.27,6.27,0,0,1,22,57.06a1.64,1.64,0,0,0-1.15-.71C12.65,55.82,6.33,49,4.85,41.25A17.82,17.82,0,0,1,6.43,29.57a1.08,1.08,0,0,0,0-1.3c-2.81-4,.32-9.25,5.15-9.83,2.84-.34,5.18.52,6.64,3.15a1,1,0,0,0,.87.55c8,.73,12.83,5.42,15.51,12.67A14.8,14.8,0,0,1,35.59,40.07Zm-4,.85c.21-8.56-7.35-16-14.43-14.78-1.32.22-2-.56-2.25-2a1.91,1.91,0,0,0-1.55-1.75A3.18,3.18,0,0,0,10,23.5c-1,1.12-.85,2.16.37,3.06s1.55,2,.55,3.34A13.43,13.43,0,0,0,9,41.47c1.6,6.43,7.51,11.58,13.5,10.89a2.09,2.09,0,0,1,2.17,1.5,2.06,2.06,0,0,0,3.07.77c1.23-.68,1.59-1.69.86-2.81A2.11,2.11,0,0,1,28.78,49,11.93,11.93,0,0,0,31.57,40.92Z"/><path class="cls-1" d="M53.56,20.1a22.61,22.61,0,0,1-3.84,11.63,37.82,37.82,0,0,1-2.39,3.4,2.4,2.4,0,0,0-.42,1.31,30.17,30.17,0,0,1-2.11,9.22,5.2,5.2,0,0,1-.51,1,.75.75,0,0,1-1,.26.77.77,0,0,1-.48-1,5.64,5.64,0,0,1,.31-.81,29.09,29.09,0,0,0,2-8.26A1.81,1.81,0,0,0,44.23,35a34.8,34.8,0,0,1-9.77-10,19,19,0,0,1-2-15.56,46.41,46.41,0,0,1,3.16-8C36.23.13,37.22-.33,38.38.24,43.45,2.73,48,5.89,51.06,10.79A16.6,16.6,0,0,1,53.56,20.1ZM45.3,30.86c-.08-.92-.14-1.53-.18-2.14A42.69,42.69,0,0,0,42.4,15.85a6.23,6.23,0,0,1-.24-.73.83.83,0,0,1,1.52-.62,6,6,0,0,1,.42.89,34.59,34.59,0,0,1,1.95,6.81c.37,2,.63,4,1,6.07,2.33-3.5,3.51-8.86,1.78-13.18-1.86-4.66-5.56-7.54-9.69-10-.54-.32-.8-.1-1,.39-.44,1.12-.92,2.22-1.31,3.36C35.55,12.5,35,16.2,36.43,20,38.12,24.49,41.39,27.75,45.3,30.86Z"/><path class="cls-1" d="M89.38,47.62a4.55,4.55,0,1,1-9.1-.14A4.56,4.56,0,0,1,84.89,43,4.64,4.64,0,0,1,89.38,47.62Zm-1.81-.08a2.68,2.68,0,0,0-2.83-2.77A2.81,2.81,0,0,0,82,47.57a2.92,2.92,0,0,0,2.91,2.79A2.7,2.7,0,0,0,87.57,47.54Z"/><path class="cls-1" d="M29.23,13.08A4.22,4.22,0,1,1,25,8.84,4.29,4.29,0,0,1,29.23,13.08Zm-4.17,2.51a2.54,2.54,0,0,0,2.47-2.52,2.57,2.57,0,0,0-2.6-2.42,2.47,2.47,0,0,0,.13,4.94Z"/><path class="cls-1" d="M43.54,58.54a3.6,3.6,0,0,1,3.53-3.7,3.68,3.68,0,0,1,.16,7.36A3.62,3.62,0,0,1,43.54,58.54Zm3.58,1.86A1.89,1.89,0,0,0,49,58.56a1.92,1.92,0,0,0-1.79-2,2,2,0,0,0-2,1.9A1.94,1.94,0,0,0,47.12,60.4Z"/><path class="cls-1" d="M8.21,54.38a2.61,2.61,0,1,1-.08,5.22,2.73,2.73,0,0,1-2.54-2.66A2.68,2.68,0,0,1,8.21,54.38Z"/><path class="cls-1" d="M57.55,7.36a2.57,2.57,0,1,1,5.14-.1,2.57,2.57,0,1,1-5.14.1Z"/><path class="cls-1" d="M70.83,92.35a1.45,1.45,0,0,1-.49,1,32.22,32.22,0,0,1-10.83,8c-.61.27-1.23.48-1.57-.31s.24-1,.75-1.22a31.2,31.2,0,0,0,10.39-7.64c.31-.35.65-.73,1.21-.48A.84.84,0,0,1,70.83,92.35Z"/><path class="cls-1" d="M29.77,41.44a6.07,6.07,0,0,1-2.94,5.22c-.52.32-1.12.55-1.52-.14s.11-1,.58-1.32c2-1.43,2.49-2.94,1.78-5.32-.17-.57-.27-1.11.4-1.38s1,.22,1.23.75A6.54,6.54,0,0,1,29.77,41.44Z"/></g></g></svg>