<svg xmlns="http://www.w3.org/2000/svg" viewBox="0 0 46.2 45.46"><defs><style>.cls-1{fill:#fff;}</style></defs><title>ico11</title><g id="Capa_2" data-name="Capa 2"><g id="Capa_1-2" data-name="Capa 1"><path class="cls-1" d="M23.11,22.8l0-.05L23,22.67l0,0C23.08,22.81,23.12,22.84,23.11,22.8Z"/><path class="cls-1" d="M22.29,22h0l-.08-.06C22.12,21.87,22,21.83,22.29,22Z"/><path class="cls-1" d="M45.59,22.06a2.07,2.07,0,0,0,0-2.93l-6.27-6.27V8.8a3,3,0,0,0-3-3H32.24L27.07.61a2.07,2.07,0,0,0-2.93,0,1.86,1.86,0,0,0-.23.26,4.11,4.11,0,0,0-1.6,0,1.73,1.73,0,0,0-.25-.3,2.07,2.07,0,0,0-2.93,0L14,5.79H9.89a3,3,0,0,0-3,3v4.06L.61,19.13a2.07,2.07,0,0,0,0,2.93,1.93,1.93,0,0,0,.52.38,3.86,3.86,0,0,0,1.09,3.2l4.66,4.65v5.45a3,3,0,0,0,3,3h5.45l5.58,5.58a3.85,3.85,0,0,0,5.45,0L32,38.75h4.36a3,3,0,0,0,3-3V31.38l5.3-5.3a3.83,3.83,0,0,0,1.12-2.72,3.69,3.69,0,0,0-.21-1.25ZM28.69,37s-2.07,1.21-2.4-.32,1.31-2.51,1.31-2.51S31,32.52,28.91,30.4a3.36,3.36,0,0,0-.55-.46,7.51,7.51,0,0,0-.79-3.38,5.79,5.79,0,0,1,4.83,3.89C33.93,35.3,28.69,37,28.69,37ZM23.27,18.27l-.09-.21c-.06-.17-.1-.38,0-.48s1-.53,1.09-.89.07-.32.17-.4a9.79,9.79,0,0,0,5.34-6c.24,0,.54.21,1,.81,1.47,2.13,2.51,5.45.71,9.76A7.78,7.78,0,0,1,27,25.12c-1.07-2.18-2.5-4.6-3.27-5.91-.19-.32-.34-.6-.46-.85h0ZM15,26.09c1.85,3.11,5.56,1.36,7.41.71.18-.06.38-.12.63-.18.42.8.88,1.69,1.36,2.65a18.54,18.54,0,0,0-2.26.53,14.74,14.74,0,0,1-5,.92h-.07a6.63,6.63,0,0,1-5-2,4.52,4.52,0,0,1-.62-.68s-.25-.38-.42-.67c0,0,0,0,0,0a7.63,7.63,0,0,1-.81-3.53c0-3.13,1.69-5.68,3.77-5.68A2.92,2.92,0,0,1,16,19l.14.13v0a4,4,0,0,1,.32.38l0,0,0,0a.79.79,0,0,0,.14.1,2.58,2.58,0,0,0,1.65.59,2.63,2.63,0,0,0,1.12-.25L22.7,26a6.1,6.1,0,0,1-7.42-3.15h0a.19.19,0,0,0,0-.09.94.94,0,0,0-.06-.15.62.62,0,0,0-.58-.35,1.65,1.65,0,0,0-.35.16,2.25,2.25,0,0,0-.3,1.12A6.71,6.71,0,0,0,15,26.09Zm-12.3-.91a3.22,3.22,0,0,1,0-4.54l4.2-4.2V29.38ZM25.92,43.87a3.22,3.22,0,0,1-4.55,0l-5.12-5.12h5.91c.89-.63,5.53-4.25,3-9.44a78.13,78.13,0,0,0-4.85-8.68s-3-5.56,1.85-8.23l.45-.25a1.09,1.09,0,0,0,0-.61l-.13-.25,0,0a1,1,0,0,1-.05-.16C21.54,9.43,20.26,6.55,20.48,6a1.14,1.14,0,0,1,.15-.23h-3.1l3.4-3.4a3.16,3.16,0,0,1,2.27-.94,3.19,3.19,0,0,1,2.27.94l3.39,3.4H22.93c.17,1.08.76,4.17,2.24,4l.13,0,1-.24.63-.17c.26-.06.54-.12.81-.16a1.87,1.87,0,0,1,1.36.68,8.91,8.91,0,0,1-1.26,2.68,2.68,2.68,0,0,1-.76.91l0,0a9,9,0,0,1-4.33,2.66l-.06,0c-.39.17-.38.41-.38.41h0c-.1.58,0,1.37.89,3,1.26,2.13,4,6.76,4.47,9a20.18,20.18,0,0,1,.52,4.86,6.29,6.29,0,0,1-.82.52h0c-.07,0-1.82,1.12-1.45,2.86a1.17,1.17,0,0,0,.68.91,1.29,1.29,0,0,0,.58.12h0a7.85,7.85,0,0,1-.64,1H31ZM44.16,25.63l-4.84,4.84V16.24l4.84,4.84a3.22,3.22,0,0,1,0,4.55Z"/></g></g></svg>