<svg xmlns="http://www.w3.org/2000/svg" viewBox="0 0 74 74"><defs><style>.cls-1{fill:#08a8e1;}</style></defs><title>ico3</title><g id="Capa_2" data-name="Capa 2"><g id="Capa_1-2" data-name="Capa 1"><path class="cls-1" d="M37,46.71H65.12c1.26,0,1.26,0,1.26-1.28q0-7.95,0-15.89c0-.41-.19-1,.33-1.14a3.06,3.06,0,0,1,2.15.07c.34.17.18.67.18,1q0,9.74,0,19.48c0,1.38,0,2.76,0,4.13a6.21,6.21,0,0,1-6.16,6.15c-4.84,0-9.68,0-14.52,0-1.21,0-1.22,0-1.06,1.24.2,1.64.43,3.27.62,4.91.08.71.39,1,1.13,1a3.72,3.72,0,0,1,4,3.84C53,72.49,51.42,74,49,74q-12,0-24,0a3.81,3.81,0,1,1-.07-7.6c.79,0,1.09-.28,1.17-1,.21-1.7.44-3.4.71-5.09.12-.79-.15-1-.92-1-4.78,0-9.56,0-14.34,0A6.26,6.26,0,0,1,5,52.7Q4.95,36.85,5,21c0-.42-.25-1,.32-1.22a3.19,3.19,0,0,1,2.07,0c.4.15.27.64.27,1,0,3.64,0,7.29,0,10.93v13.6c0,1.38,0,1.38,1.34,1.38Zm0,2.67h-24c-1.54,0-3.07,0-4.6,0-.58,0-.84.18-.82.79,0,.94,0,1.89,0,2.84A3.44,3.44,0,0,0,10,56.31a5.44,5.44,0,0,0,2.08.3H62.68a3.64,3.64,0,0,0,3.7-3.84c0-.7,0-1.41,0-2.11,0-1.26,0-1.27-1.25-1.27Zm0,17c2.45,0,4.9,0,7.35,0,.68,0,1-.22.86-.92-.25-1.82-.49-3.64-.69-5.46-.06-.54-.28-.75-.82-.74H30.3c-.53,0-.75.19-.81.74-.19,1.76-.42,3.52-.68,5.28-.11.77.07,1.12.94,1.1C32.17,66.35,34.59,66.38,37,66.38Zm0,2.67H25.55a4.14,4.14,0,0,0-1,.07,1.1,1.1,0,0,0-.89,1.14,1,1,0,0,0,.92,1,4.72,4.72,0,0,0,1,.06q11.43,0,22.86,0a5.58,5.58,0,0,0,.82,0c.63-.11,1.12-.4,1.11-1.13s-.52-1-1.14-1.09a4.5,4.5,0,0,0-.82,0Z"/><path class="cls-1" d="M74,14.86a12.36,12.36,0,0,1-18.17,11,3.46,3.46,0,0,0-2.53-.4c-1.16.26-2.36.4-3.54.57a1.41,1.41,0,0,1-1.54-.56,1.37,1.37,0,0,1,0-1.56C48.81,22.92,49.36,22,50,21a1.55,1.55,0,0,0,.16-1.54c-1.66-4.56-1.17-8.84,2-12.59A12,12,0,0,1,63.89,2.66,12.39,12.39,0,0,1,74,14.86ZM61.49,5.19a10,10,0,0,0-1.9.18,9.64,9.64,0,0,0-6.77,13.57,2.61,2.61,0,0,1-.2,2.89c-.18.24-.57.53-.29.87s.58.06.87,0a4.08,4.08,0,0,1,3.63.58,8.67,8.67,0,0,0,6,1.22,9.52,9.52,0,0,0,8.47-9.89A9.6,9.6,0,0,0,61.49,5.19Z"/><path class="cls-1" d="M11.85,0h7.71a3.83,3.83,0,0,1,4.05,4c0,3.12,0,6.25,0,9.37a3.72,3.72,0,0,1-3.94,4c-.74,0-1.06.2-1,1s0,1.53,0,2.3a1.48,1.48,0,0,1-.86,1.58,1.45,1.45,0,0,1-1.65-.48c-1.23-1.2-2.45-2.41-3.64-3.64a2.22,2.22,0,0,0-1.77-.74c-2.29,0-4.59,0-6.89,0A3.69,3.69,0,0,1,0,13.6c0-3.25,0-6.49,0-9.74A3.77,3.77,0,0,1,3.86,0C6.52,0,9.18,0,11.85,0Zm0,2.67c-2.54,0-5.08,0-7.62,0-1.08,0-1.53.44-1.54,1.5q0,4.5,0,9c0,1.15.41,1.54,1.56,1.55,2,0,3.93.1,5.88,0s3.52.16,4.65,1.85a4,4,0,0,0,.58.58c.14.14.25.4.51.29s.12-.32.13-.49,0-.43,0-.65a1.42,1.42,0,0,1,1.55-1.54c.58,0,1.16,0,1.74,0,1.27,0,1.65-.38,1.65-1.65q0-4.32,0-8.63c0-1.39-.41-1.78-1.83-1.78Z"/><path class="cls-1" d="M36.38,9.91c3.18,0,6.37,0,9.55,0,1.11,0,1,.61,1,1.35s0,1.34-1.08,1.34c-6.33,0-12.66,0-19,0-1,0-1.08-.1-1.12-1.39,0-.82.12-1.29,1.14-1.27C30.08,10,33.23,9.91,36.38,9.91Z"/><path class="cls-1" d="M36.41,36.94c1.71,0,3.43,0,5.14,0,.77,0,1.1.18,1.09,1,0,1.66,0,1.66-1.66,1.66H31.34c-.4,0-1,.17-1.09-.39a3.48,3.48,0,0,1,.08-2.07c.13-.3.55-.19.85-.19Z"/><path class="cls-1" d="M38.81,34.66c-1,0-1.9,0-2.84,0-.73,0-1-.29-1-1,0-.12,0-.24,0-.36C35,32,35,32,36.32,32c1.75,0,3.49,0,5.23,0,.86,0,1.17.3,1.08,1.12a1.69,1.69,0,0,0,0,.55c.1.82-.3,1.07-1.07,1C40.64,34.62,39.72,34.66,38.81,34.66Z"/><path class="cls-1" d="M31.47,32c1.34,0,1.36,0,1.36,1.3s0,1.38-1.27,1.38-1.38,0-1.38-1.34S30.18,32,31.47,32Z"/><path class="cls-1" d="M60.29,54.33C59,54.33,59,54.32,59,53s0-1.31,1.42-1.31c1.26,0,1.26,0,1.26,1.46C61.69,54.34,61.69,54.34,60.29,54.33Z"/><path class="cls-1" d="M31.56,26.31c1.32,0,1.32,0,1.32,1.4s0,1.27-1.37,1.27-1.3,0-1.29-1.36S30.22,26.3,31.56,26.31Z"/><path class="cls-1" d="M61.66,9.91c1.29,0,1.29,0,1.3,1.26,0,2.41,0,2.4,2.4,2.43.4,0,1-.22,1.16.27a3.26,3.26,0,0,1,0,2.07c-.09.31-.44.29-.71.3-.61,0-1.23,0-1.84,0-.83-.07-1.09.29-1,1.08,0,.61,0,1.22,0,1.83s-.24.8-.77.78h-.55c-1.33,0-1.34,0-1.34-1.31,0-2.36,0-2.35-2.36-2.38-.43,0-1.06.2-1.23-.34a3.77,3.77,0,0,1,0-2.08c.07-.27.41-.22.65-.22.61,0,1.23,0,1.83,0,.82.07,1.22-.18,1.11-1.06a9.24,9.24,0,0,1,0-1.29C60.29,9.91,60.29,9.91,61.66,9.91Z"/><path class="cls-1" d="M11.72,7.63c-1.5,0-3,0-4.49,0-.87,0-1.16-.33-1.1-1.13a2.53,2.53,0,0,0,0-.55c0-.72.22-1,1-1,3.11,0,6.23,0,9.34,0,.74,0,.94.27.94,1,0,1.72,0,1.72-1.66,1.72Z"/><path class="cls-1" d="M11.75,12.56c-1.52,0-3.05,0-4.58,0-.74,0-1.09-.26-1-1,0-.3,0-.61,0-.91,0-.47.19-.73.71-.73h9.81c.49,0,.7.19.74.7.14,1.91.12,2-1.81,2Z"/></g></g></svg>