<svg xmlns="http://www.w3.org/2000/svg" viewBox="0 0 95.22 75.61"><defs><style>.cls-1{fill:#08a8e1;}</style></defs><title>ico4</title><g id="Capa_2" data-name="Capa 2"><g id="Capa_1-2" data-name="Capa 1"><path class="cls-1" d="M57.51,75.61c-5.22,0-10.44,0-15.67,0-1.91,0-2.48-.58-2.49-2.49,0-5.18,0-10.36,0-15.55,0-1.21-.31-1.64-1.57-1.61-3.76.08-7.51,0-11.27,0A5.12,5.12,0,0,1,21,51c-.42-4.47-.82-8.93-1.23-13.4A11.2,11.2,0,0,1,20,34.41c.63-3.12,1.17-6.26,1.87-9.36,1.13-5,5-7.64,10-7a5.1,5.1,0,0,1,4.4,4.31,5,5,0,0,1-3,5.34c-1.86.79-1.86.79-1.86,2.83,0,2.36,0,4.73,0,7.1,0,.68,0,1.07.93.74a10.5,10.5,0,0,1,8.55.42,1.77,1.77,0,0,0,1.75.09,13,13,0,0,1,6.29-1.25c.65,0,1.7.45,1.84-.6s.49-2.26-.79-3.08A12.16,12.16,0,0,1,45.67,29a1.13,1.13,0,0,1-.12-.21c-.36-1.68-1.34-2.42-3.09-2.78-2-.39-3.21-2.74-3.1-4.9A4.9,4.9,0,0,1,43,16.59c1.1-.19,1.28-.69,1.23-1.63a15,15,0,0,1,1.83-8.48,13.29,13.29,0,0,1,24.7,7c0,.66,0,1.31,0,2s.25,1,1,1.14a5,5,0,0,1-.57,9.85,1.2,1.2,0,0,0-1.13.91,13.27,13.27,0,0,1-5.18,6.78,3.53,3.53,0,0,0-.45,3.26,1,1,0,0,0,.9.27,14.45,14.45,0,0,1,7.27,1.3A1.51,1.51,0,0,0,74,38.78a10.78,10.78,0,0,1,8.44-.56c.83.28,1.11.06,1.1-.79,0-2.73,0-5.47,0-8.2a1.19,1.19,0,0,0-1-1.29c-2.77-.9-4.24-3.08-3.85-5.59A5.25,5.25,0,0,1,84.18,18c4.82,0,8.17,2.72,9.06,7.4.51,2.69.92,5.39,1.59,8a18.3,18.3,0,0,1,.2,6.43c-.34,3.53-.67,7.06-1,10.59S91.81,56,88.15,56s-7.34,0-11,0c-1.14,0-1.46.39-1.45,1.49,0,5.18,0,10.37,0,15.55,0,2-.57,2.61-2.63,2.61Zm14.64-13c0-2.61,0-5.22,0-7.83,0-1.88.5-2.36,2.42-2.37H87.66c2.18,0,2.57-.3,2.8-2.47.32-3.08.53-6.17.84-9.25A23.21,23.21,0,0,0,91,32.58c-.23-.88-.52-1.42-1.52-1.28a3.57,3.57,0,0,1-1,0c-1.1-.14-1.41.38-1.39,1.41.06,2.82,0,5.63,0,8.45,0,1-.06,1.91-1.1,2.38s-1.68-.12-2.44-.66c-2.34-1.69-5-2.35-7.59-1-2,1-3.65,1.54-5.55,0-.66-.53-1.15-.23-1.45.57-.5,1.34-1.08,2.64-1.64,4A1.8,1.8,0,0,1,65,47.6c-.94-.26-1.88-.57-2.8-.88-.62-.21-.91-.19-.79.61.22,1.61.37,3.24.54,4.86.66,6.28,1.34,12.56,2,18.85.08.81.42,1,1.16,1,2,0,3.92,0,5.88,0,.92,0,1.2-.32,1.18-1.22C72.12,68.11,72.15,65.38,72.15,62.64Zm-29.23,0c0,2.69,0,5.38,0,8.08,0,.92.24,1.33,1.24,1.29,1.88-.06,3.75-.06,5.63,0,1,0,1.29-.36,1.38-1.33.48-5.24,1.05-10.47,1.59-15.69.27-2.52.56-5,.84-7.53.09-.82-.19-1-1-.73a23.25,23.25,0,0,1-2.69.84,1.84,1.84,0,0,1-2.37-1.18c-.38-.94-.77-1.88-1.13-2.84-.86-2.33-.93-2.41-3-1.08a2.54,2.54,0,0,1-3.12,0,7.58,7.58,0,0,0-9.11.55,1.93,1.93,0,0,1-3.33-1.67c0-2.53,0-5.06,0-7.59,0-2.69-.15-2.81-2.82-2.49-.41.05-.74.15-.83.57a17.66,17.66,0,0,0-.83,5.29c.37,4.3.78,8.6,1.16,12.91.17,1.91.6,2.35,2.51,2.36,4.52,0,9.05,0,13.58,0,1.69,0,2.27.59,2.28,2.29C42.93,57.39,42.92,60,42.92,62.69ZM52.68,18.3h0c-1.3,0-2.61,0-3.91,0-.68,0-1,.27-1,.95a36.45,36.45,0,0,0,.23,5.62A9.62,9.62,0,0,0,66.54,26.4c.87-2.41.69-4.9.71-7.38,0-.66-.48-.78-1-.91A7.09,7.09,0,0,1,62.89,16c-.47-.54-.75-.53-1.26-.07A8.73,8.73,0,0,1,55,18.31C54.24,18.27,53.46,18.3,52.68,18.3ZM57.56,3.59a9.73,9.73,0,0,0-9.75,10.09c0,.79.28,1.08,1.08,1.07,1.87,0,3.75-.08,5.62,0,3.36.15,5.85-1.31,6.17-4.95a1.66,1.66,0,0,1,1.58-1.6,1.73,1.73,0,0,1,1.87,1.28,19.05,19.05,0,0,1,.58,2.37,3.51,3.51,0,0,0,1.48,2.31c.6.4,1.08.46,1.06-.51C67.11,7.68,62.85,3.63,57.56,3.59ZM57.5,72.05a11.84,11.84,0,0,1,1.46,0c1.06.12,1.42-.19,1.29-1.34-.73-6.68-1.38-13.37-2.08-20.06-.05-.44,0-1.14-.63-1.15s-.57.67-.66,1.12a4,4,0,0,0,0,.49c-.69,6.28-1.37,12.55-2.09,18.82-.24,2-.22,2.1,1.77,2.11Zm-31-44.3c1.11.27,1.49-.27,1.43-1.38a1.72,1.72,0,0,1,1-1.58,3.9,3.9,0,0,1,1.91-.25c.95-.06,1.84-.25,1.94-1.42.08-.94-.78-1.58-2-1.6-3-.05-4.71,1.55-5.42,4.86C25,27.46,25.2,28,26.45,27.75Zm62.18,0c1.08.22,1.41-.24,1.17-1.27A10,10,0,0,0,89,24.05a5.23,5.23,0,0,0-5.31-2.48c-.79.19-1.49.63-1.46,1.55s.74,1.29,1.58,1.39c.4,0,.81,0,1.22,0,1.32.05,2,.6,2.07,1.9C87.17,27.53,87.59,27.94,88.63,27.76ZM57.52,36.17c-.61,0-1.23,0-1.84,0-.43,0-1.1-.4-1.22.34s-.31,1.46.42,2a5.09,5.09,0,0,0,5.32,0c.73-.57.5-1.37.39-2s-.8-.28-1.24-.31C58.74,36.14,58.13,36.16,57.52,36.17Zm-6.35,5.1c-.42.1-1.14-.3-1.45.3s.12,1.11.41,1.58c.61,1,1.28.1,1.91,0s1.23-.36,1.16-1-.84-.74-1.44-.82A5.69,5.69,0,0,0,51.17,41.27Zm12.8,0c-.79.07-1.88-.18-2.08.79s.94,1,1.61,1.28c.4.16.94.61,1.29,0s.76-1.19.51-1.8S64.43,41.34,64,41.25Z"/><path class="cls-1" d="M5.19,42.65c1.72,0,1.72,0,1.72,1.79s0,1.73-1.81,1.73-1.76,0-1.76-1.89C3.35,42.64,3.35,42.64,5.19,42.65Z"/><path class="cls-1" d="M14.87,59.21c-1.73,0-1.73,0-1.72-1.9,0-1.66,0-1.66,1.84-1.66s1.73,0,1.72,1.91C16.71,59.22,16.71,59.22,14.87,59.21Z"/><path class="cls-1" d="M3.34,63.94c0-1.71,0-1.71,1.91-1.7,1.66,0,1.66,0,1.66,1.85s0,1.72-1.81,1.71S3.34,65.8,3.34,63.94Z"/><path class="cls-1" d="M88.73,8.3c0,1.72,0,1.72-1.88,1.71-1.68,0-1.69,0-1.68-1.82,0-1.62.09-1.7,1.86-1.7S88.73,6.51,88.73,8.3Z"/><path class="cls-1" d="M10,23c0-1.69,0-1.69,1.8-1.69s1.73,0,1.72,1.8-.09,1.74-1.84,1.74S10,24.86,10,23Z"/><path class="cls-1" d="M3.52,29.56c0,1.75,0,1.75-1.85,1.75C0,31.3,0,31.28,0,29.58s.08-1.79,1.77-1.8S3.52,27.81,3.52,29.56Z"/><path class="cls-1" d="M52.58,19.64c1.82,0,1.82,0,1.82,1.81s0,1.76-1.76,1.76-1.79,0-1.79-1.7C50.84,19.64,50.84,19.64,52.58,19.64Z"/><path class="cls-1" d="M64.22,21.41c0,1.79,0,1.79-1.72,1.8s-1.85,0-1.85-1.78,0-1.79,1.83-1.79S64.21,19.65,64.22,21.41Z"/></g></g></svg>