<svg xmlns="http://www.w3.org/2000/svg" viewBox="0 0 23.76 22.19"><defs><style>.cls-1{fill:#b6d703;}</style></defs><title>ico7</title><g id="Capa_2" data-name="Capa 2"><g id="Capa_1-2" data-name="Capa 1"><path class="cls-1" d="M.67,2.49S2,.2,3,.07,5.47-.06,5.83.64s2,4.76,2,4.76A1.63,1.63,0,0,1,7.7,6.78,13,13,0,0,1,6.29,8.44a1.24,1.24,0,0,0,0,1.45,26.09,26.09,0,0,0,3.12,3.86,17.07,17.07,0,0,0,5.08,3,1,1,0,0,0,.78-.24c.31-.3,1.95-2.38,1.95-2.38a1.16,1.16,0,0,1,1.41-.29c.88.41,4.69,2.32,4.69,2.32a.84.84,0,0,1,.44.84,5.49,5.49,0,0,1-.82,2.9,6.64,6.64,0,0,1-4.63,2.29c-2.45,0-8.27-2-11.37-5.13S1.08,10.76.43,7.87-.13,3.68.67,2.49Z"/></g></g></svg>