<svg xmlns="http://www.w3.org/2000/svg" viewBox="0 0 254.26 55.27"><defs><style>.cls-1{fill:#002037;}.cls-2{fill:#08a8e1;}.cls-3{fill:#b6d703;}</style></defs><title>logo menu</title><g id="Capa_2" data-name="Capa 2"><g id="Capa_1-2" data-name="Capa 1"><path class="cls-1" d="M78.17,19H75.82a2.06,2.06,0,0,0-.8-1.37,2.47,2.47,0,0,0-1.6-.55,2.6,2.6,0,0,0-2.31,1.17,4.56,4.56,0,0,0-.68,2.6,4.39,4.39,0,0,0,.68,2.53,2.63,2.63,0,0,0,2.31,1.16,2.3,2.3,0,0,0,1.74-.7,3.07,3.07,0,0,0,.76-1.77h2.34a4.88,4.88,0,0,1-1.5,3.27,4.7,4.7,0,0,1-3.34,1.23,5.13,5.13,0,0,1-4-1.66A5.85,5.85,0,0,1,68,20.86a6,6,0,0,1,1.43-4.13,5.05,5.05,0,0,1,4-1.68,4.91,4.91,0,0,1,3.17,1A4.18,4.18,0,0,1,78.17,19Z"/><path class="cls-1" d="M87.23,22.87H81.48c.06,1.34.71,2,2,2a2.05,2.05,0,0,0,1.14-.33,1.24,1.24,0,0,0,.58-.7h1.93a3.59,3.59,0,0,1-3.73,2.68,3.89,3.89,0,0,1-3-1.16,4.26,4.26,0,0,1-1.1-3,4.23,4.23,0,0,1,1.13-3,3.87,3.87,0,0,1,2.94-1.2,3.52,3.52,0,0,1,3,1.45A4.84,4.84,0,0,1,87.23,22.87Zm-5.75-1.39H85c-.21-1.13-.79-1.7-1.74-1.7a1.72,1.72,0,0,0-1.42.62A1.81,1.81,0,0,0,81.48,21.48Z"/><path class="cls-1" d="M88.52,26.32v-8H90.6v1.11h.05a2.67,2.67,0,0,1,2.43-1.33,2.74,2.74,0,0,1,2.33.9A4,4,0,0,1,96,21.42v4.9H93.81v-4.5c0-1.31-.47-2-1.41-2a1.51,1.51,0,0,0-1.29.54,2.94,2.94,0,0,0-.4,1.74v4.18Z"/><path class="cls-1" d="M100.43,16v2.39H102v1.46h-1.6v4a1,1,0,0,0,.19.74,1.09,1.09,0,0,0,.74.18,3.48,3.48,0,0,0,.67-.06v1.71a8.16,8.16,0,0,1-1.27.08c-1.68,0-2.52-.63-2.52-1.9v-4.7H96.92V18.35h1.32V16Z"/><path class="cls-1" d="M103.08,26.32v-8h2.08v1.48h0a2.66,2.66,0,0,1,1-1.22,2.71,2.71,0,0,1,1.53-.48,1.5,1.5,0,0,1,.47.08v2a3,3,0,0,0-.78-.08c-1.44,0-2.16.85-2.16,2.56v3.59Z"/><path class="cls-1" d="M108.83,22.34A4.2,4.2,0,0,1,110,19.28a4.49,4.49,0,0,1,6,0,4.2,4.2,0,0,1,1.12,3.06A4.17,4.17,0,0,1,116,25.39a4.52,4.52,0,0,1-6,0A4.17,4.17,0,0,1,108.83,22.34Zm2.19,0a3.25,3.25,0,0,0,.41,1.74,1.65,1.65,0,0,0,1.51.8c1.3,0,2-.84,2-2.54s-.65-2.56-2-2.56S111,20.64,111,22.34Z"/><path class="cls-1" d="M132.68,19h-2.34a2.06,2.06,0,0,0-.8-1.37,2.49,2.49,0,0,0-1.6-.55,2.6,2.6,0,0,0-2.31,1.17,4.49,4.49,0,0,0-.68,2.6,4.32,4.32,0,0,0,.68,2.53,2.63,2.63,0,0,0,2.31,1.16,2.3,2.3,0,0,0,1.74-.7,3,3,0,0,0,.75-1.77h2.35a4.89,4.89,0,0,1-1.51,3.27,4.69,4.69,0,0,1-3.33,1.23,5.12,5.12,0,0,1-4-1.66,5.85,5.85,0,0,1-1.43-4.06A6,6,0,0,1,124,16.73a5,5,0,0,1,4-1.68,4.91,4.91,0,0,1,3.17,1A4.17,4.17,0,0,1,132.68,19Z"/><path class="cls-1" d="M134.25,26.32v-11h2.19v11Z"/><path class="cls-1" d="M142.07,15.18l-2.38,2.18h-1.52l1.48-2.18Zm-3.84,11.14v-8h2.19v8Z"/><path class="cls-1" d="M142.14,26.32v-8h2.08v1.11h.05a2.68,2.68,0,0,1,2.43-1.33A2.74,2.74,0,0,1,149,19a3.94,3.94,0,0,1,.59,2.39v4.9h-2.19v-4.5c0-1.31-.47-2-1.4-2a1.51,1.51,0,0,0-1.3.54,3,3,0,0,0-.4,1.74v4.18Z"/><path class="cls-1" d="M153.53,15.31v1.81h-2.19V15.31Zm-2.19,11v-8h2.19v8Z"/><path class="cls-1" d="M162.82,21.16h-2.14a1.47,1.47,0,0,0-1.62-1.38,1.63,1.63,0,0,0-1.46.85,3.45,3.45,0,0,0-.4,1.74,3.22,3.22,0,0,0,.4,1.68,1.53,1.53,0,0,0,1.42.83,1.63,1.63,0,0,0,1.74-1.61h2.11a3.62,3.62,0,0,1-1.23,2.42,4,4,0,0,1-2.61.84,3.87,3.87,0,0,1-2.9-1.14A4,4,0,0,1,155,22.45a4.4,4.4,0,0,1,1.06-3.08,3.85,3.85,0,0,1,3-1.24,4.23,4.23,0,0,1,2.53.74A3,3,0,0,1,162.82,21.16Z"/><path class="cls-1" d="M163.85,22.34A4.2,4.2,0,0,1,165,19.28a4.48,4.48,0,0,1,6,0,4.2,4.2,0,0,1,1.13,3.06A4.18,4.18,0,0,1,171,25.39a4.5,4.5,0,0,1-6,0A4.18,4.18,0,0,1,163.85,22.34Zm2.19,0a3.15,3.15,0,0,0,.42,1.74,1.64,1.64,0,0,0,1.51.8c1.29,0,1.94-.84,1.94-2.54s-.65-2.56-1.94-2.56S166,20.64,166,22.34Z"/><path class="cls-1" d="M188.31,26.16l-1.13,1.19-1.55-1.42a5.28,5.28,0,0,1-2.67.65,5.1,5.1,0,0,1-4-1.66,5.81,5.81,0,0,1-1.44-4.06A6,6,0,0,1,179,16.73a5.54,5.54,0,0,1,7.95,0,6,6,0,0,1,1.43,4.13,5.92,5.92,0,0,1-1.43,4.06Zm-5.41-2.71,1.13-1.2,1.24,1.14a4.19,4.19,0,0,0,.68-2.53,4.49,4.49,0,0,0-.68-2.6,2.87,2.87,0,0,0-4.62,0,4.56,4.56,0,0,0-.68,2.6,4.39,4.39,0,0,0,.68,2.53A2.63,2.63,0,0,0,183,24.55a1.76,1.76,0,0,0,1-.16Z"/><path class="cls-1" d="M197.26,18.35v8h-2.08V25.21h0a2.69,2.69,0,0,1-2.44,1.32,2.72,2.72,0,0,1-2.33-.91,3.86,3.86,0,0,1-.58-2.37v-4.9H192v4.5c0,1.3.46,2,1.4,2a1.49,1.49,0,0,0,1.29-.54,2.94,2.94,0,0,0,.4-1.74V18.35Z"/><path class="cls-1" d="M201.18,15.31v1.81H199V15.31Zm-2.19,11v-8h2.19v8Z"/><path class="cls-1" d="M202.9,26.32v-8H205v1.48h0a2.66,2.66,0,0,1,1-1.22,2.7,2.7,0,0,1,1.52-.48,1.51,1.51,0,0,1,.48.08v2a3.07,3.07,0,0,0-.78-.08c-1.44,0-2.16.85-2.16,2.56v3.59Z"/><path class="cls-1" d="M216.37,18.35v8h-2.08V25.21h0a2.67,2.67,0,0,1-2.43,1.32,2.71,2.71,0,0,1-2.33-.91,3.86,3.86,0,0,1-.58-2.37v-4.9h2.18v4.5c0,1.3.47,2,1.41,2a1.51,1.51,0,0,0,1.29-.54,2.94,2.94,0,0,0,.4-1.74V18.35Zm-1-3.17L213,17.36h-1.52L213,15.18Z"/><path class="cls-1" d="M218,26.32v-8h2.08v1.48h0a2.66,2.66,0,0,1,1-1.22,2.71,2.71,0,0,1,1.53-.48,1.5,1.5,0,0,1,.47.08v2a3,3,0,0,0-.78-.08c-1.44,0-2.16.85-2.16,2.56v3.59Z"/><path class="cls-1" d="M231.69,18.35v7.46q0,3.53-4.13,3.53a4.33,4.33,0,0,1-2.32-.6,2.38,2.38,0,0,1-1.2-2h2.17c.18.73.72,1.09,1.64,1.09,1.17,0,1.75-.65,1.75-2v-1h0a2.5,2.5,0,0,1-2.38,1.24,3.11,3.11,0,0,1-2.61-1.19,4.6,4.6,0,0,1-.8-2.82,4.21,4.21,0,0,1,.88-2.74,3.05,3.05,0,0,1,2.54-1.21,2.51,2.51,0,0,1,2.37,1.28h0V18.35Zm-3.95,6.09a1.65,1.65,0,0,0,1.4-.68,2.42,2.42,0,0,0,.46-1.53c0-1.63-.62-2.45-1.86-2.45a1.5,1.5,0,0,0-1.34.7,2.61,2.61,0,0,0-.43,1.57,3.13,3.13,0,0,0,.38,1.62A1.52,1.52,0,0,0,227.74,24.44Z"/><path class="cls-1" d="M235.69,15.31v1.81H233.5V15.31Zm-2.19,11v-8h2.19v8Z"/><path class="cls-1" d="M245,21.16h-2.14a1.47,1.47,0,0,0-1.62-1.38,1.63,1.63,0,0,0-1.46.85,3.45,3.45,0,0,0-.4,1.74,3.22,3.22,0,0,0,.4,1.68,1.53,1.53,0,0,0,1.42.83,1.63,1.63,0,0,0,1.74-1.61H245a3.58,3.58,0,0,1-1.23,2.42,4,4,0,0,1-2.61.84,3.87,3.87,0,0,1-2.9-1.14,4,4,0,0,1-1.12-2.94,4.45,4.45,0,0,1,1.06-3.08,3.87,3.87,0,0,1,3-1.24,4.21,4.21,0,0,1,2.53.74A2.94,2.94,0,0,1,245,21.16Z"/><path class="cls-1" d="M246,22.34a4.2,4.2,0,0,1,1.12-3.06,4.48,4.48,0,0,1,6,0,4.2,4.2,0,0,1,1.13,3.06,4.18,4.18,0,0,1-1.13,3.05,4.5,4.5,0,0,1-6,0A4.17,4.17,0,0,1,246,22.34Zm2.18,0a3.15,3.15,0,0,0,.42,1.74,1.64,1.64,0,0,0,1.51.8c1.29,0,1.94-.84,1.94-2.54s-.65-2.56-1.94-2.56S248.2,20.64,248.2,22.34Z"/><path class="cls-1" d="M80.49,40.39v-1h0A2.58,2.58,0,0,1,78,40.6a3.14,3.14,0,0,1-2.68-1.31,4.8,4.8,0,0,1-.89-3,4.52,4.52,0,0,1,.89-2.86A3.17,3.17,0,0,1,78,32.2a2.64,2.64,0,0,1,2.37,1.19h0v-4h2.19v11Zm0-4a3.37,3.37,0,0,0-.4-1.76,1.8,1.8,0,0,0-3,0,3.16,3.16,0,0,0-.43,1.76,3.09,3.09,0,0,0,.46,1.74,1.62,1.62,0,0,0,1.46.81C79.83,39,80.46,38.1,80.46,36.38Z"/><path class="cls-1" d="M91.77,36.94H86c.07,1.34.72,2,2,2a2,2,0,0,0,1.14-.34,1.21,1.21,0,0,0,.59-.69h1.92A3.58,3.58,0,0,1,87.9,40.6a3.89,3.89,0,0,1-3-1.16,4.22,4.22,0,0,1-1.1-3,4.17,4.17,0,0,1,1.13-3,3.84,3.84,0,0,1,2.93-1.2,3.53,3.53,0,0,1,3,1.45A4.83,4.83,0,0,1,91.77,36.94ZM86,35.55h3.56c-.2-1.13-.78-1.7-1.74-1.7a1.73,1.73,0,0,0-1.42.62A1.88,1.88,0,0,0,86,35.55Z"/><path class="cls-1" d="M97.1,34.93a6,6,0,0,1,1.44-4.13,5.54,5.54,0,0,1,7.95,0,6,6,0,0,1,1.43,4.13,5.81,5.81,0,0,1-1.43,4,5.57,5.57,0,0,1-7.95,0A5.77,5.77,0,0,1,97.1,34.93Zm2.42,0a4.39,4.39,0,0,0,.68,2.53,2.9,2.9,0,0,0,4.62,0,4.39,4.39,0,0,0,.68-2.53,4.56,4.56,0,0,0-.68-2.6,2.87,2.87,0,0,0-4.62,0A4.56,4.56,0,0,0,99.52,34.93Z"/><path class="cls-1" d="M109.34,40.39v-11h2.19v4h0a2.79,2.79,0,0,1,2.51-1.19,3,3,0,0,1,2.25,1,4.56,4.56,0,0,1,1.05,3.19,4.59,4.59,0,0,1-1.05,3.2,3,3,0,0,1-2.25,1,2.71,2.71,0,0,1-2.62-1.23h0v1Zm5.84-4a3.25,3.25,0,0,0-.45-1.79,1.59,1.59,0,0,0-1.42-.77,1.58,1.58,0,0,0-1.41.77,3.25,3.25,0,0,0-.45,1.79,3.18,3.18,0,0,0,.45,1.77,1.58,1.58,0,0,0,1.41.77,1.59,1.59,0,0,0,1.42-.77A3.18,3.18,0,0,0,115.18,36.41Z"/><path class="cls-1" d="M126.3,36.94h-5.74q.09,2,2,2a2,2,0,0,0,1.14-.34,1.17,1.17,0,0,0,.59-.69h1.92a3.57,3.57,0,0,1-3.72,2.68,3.9,3.9,0,0,1-3-1.16,4.65,4.65,0,0,1,0-6,3.86,3.86,0,0,1,2.94-1.2,3.52,3.52,0,0,1,3,1.45A4.78,4.78,0,0,1,126.3,36.94Zm-5.74-1.39h3.56c-.21-1.13-.79-1.7-1.75-1.7a1.7,1.7,0,0,0-1.41.62A1.81,1.81,0,0,0,120.56,35.55Z"/><path class="cls-1" d="M127.21,37.8h2.08a1.22,1.22,0,0,0,.53,1,1.93,1.93,0,0,0,1.15.31,1.89,1.89,0,0,0,1-.22.87.87,0,0,0,.48-.8c0-.31-.22-.55-.65-.74a11.54,11.54,0,0,0-1.84-.49,4.87,4.87,0,0,1-1.74-.65,1.68,1.68,0,0,1-.78-1.48c0-1.7,1.15-2.56,3.46-2.56s3.37.85,3.52,2.55H132.3q-.08-1.08-1.5-1.08c-.81,0-1.21.24-1.21.74,0,.34.25.6.77.78.06,0,.63.16,1.71.4a5.26,5.26,0,0,1,1.74.68,1.8,1.8,0,0,1,.78,1.56A2.4,2.4,0,0,1,133.45,40a4.57,4.57,0,0,1-2.49.6,4.67,4.67,0,0,1-2.53-.61A2.57,2.57,0,0,1,127.21,37.8Z"/><path class="cls-1" d="M138.12,29.38v1.81h-2.19V29.38Zm-2.19,11v-8h2.19v8Z"/><path class="cls-1" d="M145.53,40.39v-1h0a2.58,2.58,0,0,1-2.42,1.23,3.14,3.14,0,0,1-2.68-1.31,4.8,4.8,0,0,1-.89-3,4.52,4.52,0,0,1,.89-2.86A3.17,3.17,0,0,1,143,32.2a2.62,2.62,0,0,1,2.37,1.19h0v-4h2.18v11Zm0-4a3.37,3.37,0,0,0-.4-1.76,1.8,1.8,0,0,0-3,0,3.16,3.16,0,0,0-.43,1.76,3.09,3.09,0,0,0,.46,1.74,1.63,1.63,0,0,0,1.46.81C144.88,39,145.5,38.1,145.5,36.38Z"/><path class="cls-1" d="M151.36,34.87h-2.19a2.49,2.49,0,0,1,1.25-2.1,4.81,4.81,0,0,1,2.49-.57c2.34,0,3.5.76,3.5,2.27v4.14a3.73,3.73,0,0,0,.28,1.78h-2.22a3.14,3.14,0,0,1-.15-.77,3.56,3.56,0,0,1-2.68,1,3,3,0,0,1-1.93-.58,2.21,2.21,0,0,1-.79-1.81,2.08,2.08,0,0,1,.85-1.81,4.64,4.64,0,0,1,1.87-.61c1.18-.16,1.78-.25,1.8-.26q.78-.2.78-.78a1,1,0,0,0-.43-.9,2,2,0,0,0-1-.18C151.91,33.67,151.43,34.07,151.36,34.87Zm2.86,2.43v-.81a2.39,2.39,0,0,1-1.14.35,6.4,6.4,0,0,0-1.32.3,1,1,0,0,0-.65,1c0,.68.45,1,1.34,1C153.63,39.14,154.22,38.53,154.22,37.3Z"/><path class="cls-1" d="M163.79,40.39v-1h0a2.58,2.58,0,0,1-2.42,1.23,3.14,3.14,0,0,1-2.68-1.31,4.8,4.8,0,0,1-.89-3,4.52,4.52,0,0,1,.89-2.86,3.17,3.17,0,0,1,2.64-1.27,2.62,2.62,0,0,1,2.37,1.19h0v-4h2.18v11Zm0-4a3.37,3.37,0,0,0-.4-1.76,1.8,1.8,0,0,0-3,0A3.16,3.16,0,0,0,160,36.4a3.09,3.09,0,0,0,.46,1.74,1.63,1.63,0,0,0,1.46.81C163.14,39,163.76,38.1,163.76,36.38Z"/><path class="cls-1" d="M179.06,32.42l-3.32,9a2.74,2.74,0,0,1-1,1.39,3.25,3.25,0,0,1-1.76.41,11,11,0,0,1-1.34-.08v-1.8c.77.06,1.2.09,1.28.08.57,0,.85-.38.85-1a1.39,1.39,0,0,0-.09-.5l-2.81-7.47h2.34L175,37.87h0l1.74-5.45Z"/><path class="cls-1" d="M184.32,40.39v-11h4.74a4.76,4.76,0,0,1,3.56,1.36,5.52,5.52,0,0,1,1.44,4.08,6,6,0,0,1-1.24,4,4.61,4.61,0,0,1-3.76,1.59Zm2.42-9v6.93h2.15a2.5,2.5,0,0,0,1.9-.74,3.51,3.51,0,0,0,.85-2.56A4.33,4.33,0,0,0,191,32.4a3,3,0,0,0-2.5-1Z"/><path class="cls-1" d="M197.75,29.38v1.81h-2.18V29.38Zm-2.18,11v-8h2.18v8Z"/><path class="cls-1" d="M201.58,34.87h-2.19a2.49,2.49,0,0,1,1.25-2.1,4.78,4.78,0,0,1,2.49-.57c2.33,0,3.5.76,3.5,2.27v4.14a3.73,3.73,0,0,0,.28,1.78h-2.22a3.21,3.21,0,0,1-.16-.77,3.54,3.54,0,0,1-2.68,1,3,3,0,0,1-1.92-.58,2.18,2.18,0,0,1-.79-1.81A2.06,2.06,0,0,1,200,36.4a4.64,4.64,0,0,1,1.86-.61l1.81-.26q.78-.2.78-.78a1,1,0,0,0-.43-.9,2,2,0,0,0-1-.18Q201.69,33.67,201.58,34.87Zm2.86,2.43v-.81a2.39,2.39,0,0,1-1.14.35,6.23,6.23,0,0,0-1.32.3,1,1,0,0,0-.65,1c0,.68.45,1,1.34,1C203.85,39.14,204.44,38.53,204.44,37.3Z"/><path class="cls-1" d="M208.33,40.39v-11h2.18v4h0a2.82,2.82,0,0,1,2.52-1.19,3,3,0,0,1,2.25,1,4.61,4.61,0,0,1,1,3.19,4.63,4.63,0,0,1-1,3.2,3,3,0,0,1-2.25,1,2.71,2.71,0,0,1-2.62-1.23h0v1Zm5.84-4a3.25,3.25,0,0,0-.45-1.79,1.69,1.69,0,0,0-2.84,0,3.25,3.25,0,0,0-.44,1.79,3.18,3.18,0,0,0,.44,1.77,1.69,1.69,0,0,0,2.84,0A3.18,3.18,0,0,0,214.17,36.41Z"/><path class="cls-1" d="M225.29,36.94h-5.75c.06,1.34.72,2,2,2a2,2,0,0,0,1.14-.34,1.21,1.21,0,0,0,.59-.69h1.92a3.58,3.58,0,0,1-3.73,2.68,3.89,3.89,0,0,1-3-1.16,4.22,4.22,0,0,1-1.11-3,4.18,4.18,0,0,1,1.14-3,3.84,3.84,0,0,1,2.93-1.2,3.53,3.53,0,0,1,3,1.45A4.89,4.89,0,0,1,225.29,36.94Zm-5.75-1.39h3.56c-.2-1.13-.78-1.7-1.74-1.7a1.73,1.73,0,0,0-1.42.62A1.88,1.88,0,0,0,219.54,35.55Z"/><path class="cls-1" d="M229.36,30v2.39H231v1.46h-1.6v3.95a1.09,1.09,0,0,0,.18.74,1.11,1.11,0,0,0,.74.18,3.51,3.51,0,0,0,.68-.06V40.4a8.3,8.3,0,0,1-1.28.08c-1.67,0-2.51-.63-2.51-1.9v-4.7h-1.32V32.42h1.32V30Z"/><path class="cls-1" d="M239.56,36.94h-5.75c.06,1.34.72,2,2,2a2,2,0,0,0,1.14-.34,1.15,1.15,0,0,0,.58-.69h1.93a3.58,3.58,0,0,1-3.73,2.68,3.89,3.89,0,0,1-3-1.16,4.22,4.22,0,0,1-1.11-3,4.18,4.18,0,0,1,1.14-3,3.84,3.84,0,0,1,2.93-1.2,3.53,3.53,0,0,1,3,1.45A4.89,4.89,0,0,1,239.56,36.94Zm-5.75-1.39h3.56c-.2-1.13-.78-1.7-1.74-1.7a1.72,1.72,0,0,0-1.42.62A1.88,1.88,0,0,0,233.81,35.55Z"/><path class="cls-1" d="M240.47,37.8h2.08a1.21,1.21,0,0,0,.52,1,2,2,0,0,0,1.16.31,1.83,1.83,0,0,0,1-.22.87.87,0,0,0,.48-.8c0-.31-.21-.55-.65-.74a11.32,11.32,0,0,0-1.83-.49,4.87,4.87,0,0,1-1.74-.65,1.67,1.67,0,0,1-.79-1.48c0-1.7,1.16-2.56,3.47-2.56s3.37.85,3.51,2.55h-2.08c-.05-.72-.55-1.08-1.49-1.08s-1.22.24-1.22.74c0,.34.26.6.77.78.06,0,.63.16,1.71.4a5.26,5.26,0,0,1,1.74.68,1.79,1.79,0,0,1,.79,1.56A2.4,2.4,0,0,1,246.71,40a5.51,5.51,0,0,1-5,0A2.54,2.54,0,0,1,240.47,37.8Z"/><path class="cls-2" d="M2.66,29.1A2.66,2.66,0,0,1,.78,24.56L24.56.78a2.66,2.66,0,0,1,3.76,3.76L4.54,28.32A2.65,2.65,0,0,1,2.66,29.1Z"/><path class="cls-3" d="M56.65,29.1a2.65,2.65,0,0,1-1.88-.78L31,4.54A2.66,2.66,0,1,1,34.75.78L58.53,24.56a2.66,2.66,0,0,1-1.88,4.54Z"/><rect class="cls-1" x="8.56" y="8.6" width="43.02" height="42.21" rx="10.97" ry="10.97" transform="translate(29.81 -12.56) rotate(45)"/><path class="cls-2" d="M46.61,7.43H29.45c.2,1.39,1,5.36,2.87,5.13l.17,0h0l1.28-.3h0a12.91,12.91,0,0,1,1.85-.43,2.36,2.36,0,0,1,1.74.88,11.61,11.61,0,0,1-1.61,3.43,3.91,3.91,0,0,1-1,1.17v0a11.63,11.63,0,0,1-5.56,3.41l-.06,0c-.51.22-.49.52-.49.52l0,0c-.13.74-.06,1.76,1.14,3.8,1.61,2.73,5.11,8.68,5.74,11.48a26.28,26.28,0,0,1,.67,6.25,6.61,6.61,0,0,1-1.05.66l0,0c-.09.06-2.35,1.44-1.87,3.67a1.52,1.52,0,0,0,.88,1.17,1.74,1.74,0,0,0,.75.15h0a8.78,8.78,0,0,1-.82,1.26H46.61a3.88,3.88,0,0,0,3.87-3.86V11.29A3.88,3.88,0,0,0,46.61,7.43ZM30.52,24.67c-.25-.42-.44-.78-.59-1.1h0l-.05-.1c0-.1-.08-.18-.12-.27s-.13-.49,0-.63,1.31-.66,1.4-1.13.09-.42.22-.52a12.57,12.57,0,0,0,6.86-7.72c.3,0,.69.27,1.23,1.05,1.89,2.73,3.22,7,.91,12.53a10,10,0,0,1-5.67,5.49C33.34,29.46,31.51,26.34,30.52,24.67ZM36.84,47.5s-2.66,1.54-3.08-.42,1.68-3.22,1.68-3.22,4.41-2.1,1.68-4.83a4.83,4.83,0,0,0-.71-.59,9.43,9.43,0,0,0-1-4.34c2.65.5,5.23,1.88,6.21,5C43.56,45.33,36.84,47.5,36.84,47.5Z"/><path class="cls-1" d="M29.67,29.27l0-.06-.08-.11v0C29.63,29.29,29.68,29.32,29.67,29.27Z"/><path class="cls-1" d="M28.63,28.24h0l-.11-.08C28.41,28.08,28.29,28,28.63,28.24Z"/><path class="cls-3" d="M32.25,37.62A100.79,100.79,0,0,0,26,26.49s-3.85-7.14,2.38-10.57L29,15.6a1.43,1.43,0,0,0,0-.78c-.05-.11-.11-.21-.17-.33l-.06-.06a1,1,0,0,1-.07-.2C27.65,12.11,26,8.41,26.3,7.72a1.32,1.32,0,0,1,.19-.29H12.7a3.88,3.88,0,0,0-3.87,3.86v34.6a3.88,3.88,0,0,0,3.87,3.86H28.45C29.6,48.94,35.55,44.29,32.25,37.62Zm-3.85.64A19.13,19.13,0,0,1,22,39.44h-.09a8.56,8.56,0,0,1-6.45-2.6,5.62,5.62,0,0,1-.79-.88s-.32-.49-.54-.86v0a9.86,9.86,0,0,1-1-4.53c0-4,2.16-7.3,4.84-7.3a3.78,3.78,0,0,1,2.63,1.18l.18.17v0c.14.16.28.32.41.5l0,0,0,0a.85.85,0,0,0,.17.14,3.38,3.38,0,0,0,2.13.76A3.31,3.31,0,0,0,25,25.79l4.2,7.59a7.83,7.83,0,0,1-9.53-4.05v0s0-.05,0-.12l-.09-.18a.8.8,0,0,0-.74-.46,1.58,1.58,0,0,0-.45.21,2.7,2.7,0,0,0-.38,1.43,8.4,8.4,0,0,0,1.31,3.26c2.38,4,7.14,1.75,9.52.91.22-.07.49-.15.8-.22.55,1,1.14,2.16,1.75,3.4A22.83,22.83,0,0,0,28.4,38.26Z"/></g></g></svg>