<svg xmlns="http://www.w3.org/2000/svg" viewBox="0 0 450.39 227.57"><defs><style>.cls-1{fill:#002037;}.cls-2{fill:#08a8e1;}.cls-3{fill:#b6d703;}</style></defs><title>logo inicio</title><g id="Capa_2" data-name="Capa 2"><g id="Capa_1-2" data-name="Capa 1"><path class="cls-1" d="M24.56,169.1H18.89A5,5,0,0,0,17,165.79a6,6,0,0,0-3.87-1.35,6.31,6.31,0,0,0-5.59,2.84,11,11,0,0,0-1.64,6.29,10.6,10.6,0,0,0,1.64,6.12,6.38,6.38,0,0,0,5.59,2.79,5.55,5.55,0,0,0,4.21-1.68,7.37,7.37,0,0,0,1.83-4.28h5.66a11.88,11.88,0,0,1-3.63,7.92,11.43,11.43,0,0,1-8.07,3,12.25,12.25,0,0,1-9.61-4A14,14,0,0,1,0,173.57a14.4,14.4,0,0,1,3.47-10,12.14,12.14,0,0,1,9.61-4.06A12,12,0,0,1,20.76,162,10.2,10.2,0,0,1,24.56,169.1Z"/><path class="cls-1" d="M46.47,178.42H32.57c.15,3.25,1.72,4.88,4.73,4.88a4.84,4.84,0,0,0,2.76-.82,2.88,2.88,0,0,0,1.41-1.68h4.66q-2.12,6.49-9,6.49a9.41,9.41,0,0,1-7.17-2.82,11.23,11.23,0,0,1,.07-14.6,9.35,9.35,0,0,1,7.1-2.89,8.5,8.5,0,0,1,7.27,3.5A11.69,11.69,0,0,1,46.47,178.42Zm-13.9-3.36h8.6c-.49-2.73-1.9-4.09-4.21-4.09a4.09,4.09,0,0,0-3.42,1.49A4.37,4.37,0,0,0,32.57,175.06Z"/><path class="cls-1" d="M49.6,186.76V167.5h5v2.68h.11a6.48,6.48,0,0,1,5.89-3.2c2.65,0,4.53.72,5.62,2.16q1.43,1.86,1.42,5.78v11.84H62.38V175.88q0-4.73-3.39-4.73a3.64,3.64,0,0,0-3.13,1.31,7.12,7.12,0,0,0-1,4.21v10.09Z"/><path class="cls-1" d="M78.4,161.72v5.78h3.87V171H78.4v9.54a2.59,2.59,0,0,0,.45,1.79,2.56,2.56,0,0,0,1.79.45,8.22,8.22,0,0,0,1.63-.15v4.13a19,19,0,0,1-3.09.19q-6.08,0-6.07-4.58V171H69.9V167.5h3.21v-5.78Z"/><path class="cls-1" d="M84.81,186.76V167.5h5v3.58h.07a6.26,6.26,0,0,1,2.46-3A6.6,6.6,0,0,1,96.06,167a3.8,3.8,0,0,1,1.16.18v4.92a9,9,0,0,0-1.9-.18q-5.22,0-5.22,6.18v8.68Z"/><path class="cls-1" d="M98.71,177.15a10.11,10.11,0,0,1,2.72-7.4,10.86,10.86,0,0,1,14.49,0,11.37,11.37,0,0,1,0,14.76,10.83,10.83,0,0,1-14.49,0A10,10,0,0,1,98.71,177.15Zm5.29,0a7.72,7.72,0,0,0,1,4.21,4,4,0,0,0,3.66,1.94q4.7,0,4.69-6.15T108.66,171Q104,171,104,177.15Z"/><path class="cls-1" d="M156.39,169.1h-5.66a5,5,0,0,0-1.94-3.31,6,6,0,0,0-3.88-1.35,6.31,6.31,0,0,0-5.59,2.84,11,11,0,0,0-1.64,6.29,10.6,10.6,0,0,0,1.64,6.12,6.39,6.39,0,0,0,5.59,2.79,5.55,5.55,0,0,0,4.21-1.68,7.24,7.24,0,0,0,1.83-4.28h5.66a11.88,11.88,0,0,1-3.63,7.92,11.39,11.39,0,0,1-8.07,3,12.26,12.26,0,0,1-9.61-4,14,14,0,0,1-3.47-9.8,14.4,14.4,0,0,1,3.47-10,12.15,12.15,0,0,1,9.61-4.06,12,12,0,0,1,7.68,2.49A10.2,10.2,0,0,1,156.39,169.1Z"/><path class="cls-1" d="M160.19,186.76v-26.6h5.29v26.6Z"/><path class="cls-1" d="M179.08,159.82l-5.74,5.29h-3.69l3.58-5.29Zm-9.28,26.94V167.5h5.29v19.26Z"/><path class="cls-1" d="M179.27,186.76V167.5h5v2.68h.11a6.49,6.49,0,0,1,5.89-3.2q4,0,5.62,2.16,1.43,1.86,1.42,5.78v11.84h-5.29V175.88q0-4.73-3.39-4.73a3.64,3.64,0,0,0-3.13,1.31,7.12,7.12,0,0,0-1,4.21v10.09Z"/><path class="cls-1" d="M206.8,160.16v4.36h-5.29v-4.36Zm-5.29,26.6V167.5h5.29v19.26Z"/><path class="cls-1" d="M229.27,174.28h-5.18a3.54,3.54,0,0,0-3.91-3.31,3.91,3.91,0,0,0-3.54,2,8.55,8.55,0,0,0-1,4.22,8,8,0,0,0,1,4.06,3.72,3.72,0,0,0,3.43,2c2.43,0,3.84-1.3,4.21-3.91h5.11a8.73,8.73,0,0,1-3,5.85,9.59,9.59,0,0,1-6.31,2,9.41,9.41,0,0,1-7-2.76,9.75,9.75,0,0,1-2.7-7.12A10.68,10.68,0,0,1,213,170a9.28,9.28,0,0,1,7.27-3,10.07,10.07,0,0,1,6.11,1.79A7.1,7.1,0,0,1,229.27,174.28Z"/><path class="cls-1" d="M231.77,177.15a10.15,10.15,0,0,1,2.72-7.4,10.87,10.87,0,0,1,14.5,0,11.37,11.37,0,0,1,0,14.76,10.84,10.84,0,0,1-14.5,0A10.07,10.07,0,0,1,231.77,177.15Zm5.29,0a7.71,7.71,0,0,0,1,4.21,4,4,0,0,0,3.65,1.94q4.69,0,4.69-6.15T241.72,171Q237.06,171,237.06,177.15Z"/><path class="cls-1" d="M290.91,186.39l-2.72,2.87-3.77-3.43A12.62,12.62,0,0,1,278,187.4a12.27,12.27,0,0,1-9.62-4,14,14,0,0,1-3.46-9.8,14.4,14.4,0,0,1,3.46-10,13.42,13.42,0,0,1,19.23,0,14.4,14.4,0,0,1,3.46,10,14.21,14.21,0,0,1-3.46,9.8Zm-13.08-6.56,2.72-2.9,3,2.76a10.3,10.3,0,0,0,1.64-6.12,11,11,0,0,0-1.64-6.29,6.92,6.92,0,0,0-11.18,0,10.94,10.94,0,0,0-1.64,6.29,10.53,10.53,0,0,0,1.64,6.12,6.38,6.38,0,0,0,5.59,2.79,4.26,4.26,0,0,0,2.34-.37Z"/><path class="cls-1" d="M312.56,167.5v19.26h-5v-2.68h-.12a6.46,6.46,0,0,1-5.88,3.21c-2.66,0-4.54-.74-5.63-2.2-.94-1.22-1.42-3.13-1.42-5.74V167.5h5.29v10.88c0,3.16,1.13,4.73,3.4,4.73a3.64,3.64,0,0,0,3.13-1.3,7.2,7.2,0,0,0,1-4.21V167.5Z"/><path class="cls-1" d="M322,160.16v4.36h-5.29v-4.36Zm-5.29,26.6V167.5H322v19.26Z"/><path class="cls-1" d="M326.19,186.76V167.5h5v3.58h.08a6.2,6.2,0,0,1,2.46-3,6.55,6.55,0,0,1,3.69-1.15,3.74,3.74,0,0,1,1.15.18v4.92a9,9,0,0,0-1.9-.18q-5.22,0-5.22,6.18v8.68Z"/><path class="cls-1" d="M358.76,167.5v19.26h-5v-2.68h-.11a6.48,6.48,0,0,1-5.89,3.21c-2.66,0-4.53-.74-5.63-2.2q-1.41-1.83-1.41-5.74V167.5H346v10.88c0,3.16,1.13,4.73,3.39,4.73a3.64,3.64,0,0,0,3.13-1.3,7.12,7.12,0,0,0,1-4.21V167.5Zm-2.42-7.68-5.74,5.29h-3.69l3.58-5.29Z"/><path class="cls-1" d="M362.78,186.76V167.5h5v3.58h.08a6.2,6.2,0,0,1,2.46-3A6.6,6.6,0,0,1,374,167a3.74,3.74,0,0,1,1.15.18v4.92a8.89,8.89,0,0,0-1.9-.18c-3.48,0-5.21,2.06-5.21,6.18v8.68Z"/><path class="cls-1" d="M395.8,167.5v18q0,8.52-10,8.53a10.5,10.5,0,0,1-5.59-1.45,5.72,5.72,0,0,1-2.9-4.74h5.25q.63,2.66,3.95,2.65,4.25,0,4.25-4.77v-2.54h-.08c-1.14,2-3.07,3-5.77,3a7.47,7.47,0,0,1-6.3-2.87,11.08,11.08,0,0,1-1.94-6.82,10.27,10.27,0,0,1,2.13-6.64A7.39,7.39,0,0,1,385,167a6.08,6.08,0,0,1,5.74,3.09h.08V167.5Zm-9.54,14.72a4,4,0,0,0,3.39-1.64,5.85,5.85,0,0,0,1.12-3.69c0-3.95-1.51-5.92-4.51-5.92a3.63,3.63,0,0,0-3.24,1.67,6.35,6.35,0,0,0-1,3.8,7.36,7.36,0,0,0,.94,3.92A3.65,3.65,0,0,0,386.26,182.22Z"/><path class="cls-1" d="M405.49,160.16v4.36H400.2v-4.36Zm-5.29,26.6V167.5h5.29v19.26Z"/><path class="cls-1" d="M428,174.28h-5.18a3.55,3.55,0,0,0-3.92-3.31,3.91,3.91,0,0,0-3.54,2,8.55,8.55,0,0,0-1,4.22,8,8,0,0,0,1,4.06,3.73,3.73,0,0,0,3.43,2q3.66,0,4.21-3.91h5.11a8.72,8.72,0,0,1-3,5.85,9.64,9.64,0,0,1-6.32,2,9.42,9.42,0,0,1-7-2.76,9.75,9.75,0,0,1-2.7-7.12,10.68,10.68,0,0,1,2.57-7.45,9.3,9.3,0,0,1,7.27-3,10.07,10.07,0,0,1,6.11,1.79A7.11,7.11,0,0,1,428,174.28Z"/><path class="cls-1" d="M430.45,177.15a10.15,10.15,0,0,1,2.72-7.4,10.87,10.87,0,0,1,14.5,0,11.37,11.37,0,0,1,0,14.76,10.84,10.84,0,0,1-14.5,0A10.07,10.07,0,0,1,430.45,177.15Zm5.29,0a7.71,7.71,0,0,0,1,4.21,4,4,0,0,0,3.65,1.94q4.69,0,4.7-6.15T440.4,171C437.3,171,435.74,173,435.74,177.15Z"/><path class="cls-1" d="M30.18,220.79v-2.46h-.07q-1.75,3-5.85,3a7.64,7.64,0,0,1-6.49-3.17A11.55,11.55,0,0,1,15.61,211a10.9,10.9,0,0,1,2.16-6.93A7.62,7.62,0,0,1,24.15,201a6.36,6.36,0,0,1,5.73,2.87h0v-9.69h5.29v26.61Zm-.07-9.69a8.23,8.23,0,0,0-1-4.25A4,4,0,0,0,25.56,205a4,4,0,0,0-3.61,1.9,7.64,7.64,0,0,0-1.05,4.25A7.48,7.48,0,0,0,22,215.35a3.94,3.94,0,0,0,3.54,2Q30.11,217.32,30.11,211.1Z"/><path class="cls-1" d="M57.46,212.44H43.56c.15,3.26,1.73,4.88,4.73,4.88a4.84,4.84,0,0,0,2.76-.82,2.89,2.89,0,0,0,1.41-1.67h4.66q-2.11,6.48-9,6.48a9.44,9.44,0,0,1-7.18-2.81,10.26,10.26,0,0,1-2.66-7.33A10.13,10.13,0,0,1,41,203.89a9.32,9.32,0,0,1,7.1-2.89,8.48,8.48,0,0,1,7.26,3.5A11.65,11.65,0,0,1,57.46,212.44Zm-13.9-3.35h8.61c-.5-2.74-1.9-4.1-4.21-4.1a4.14,4.14,0,0,0-3.43,1.49A4.38,4.38,0,0,0,43.56,209.09Z"/><path class="cls-1" d="M70.35,207.6a14.41,14.41,0,0,1,3.47-10,12.15,12.15,0,0,1,9.61-4.06A12.15,12.15,0,0,1,93,197.61a14.41,14.41,0,0,1,3.47,10A14.08,14.08,0,0,1,93,217.4a12.29,12.29,0,0,1-9.61,4,12.29,12.29,0,0,1-9.61-4A14.08,14.08,0,0,1,70.35,207.6Zm5.85,0a10.59,10.59,0,0,0,1.64,6.11,7,7,0,0,0,11.18,0,10.59,10.59,0,0,0,1.64-6.11A11,11,0,0,0,89,201.3a6.94,6.94,0,0,0-11.18,0A11,11,0,0,0,76.2,207.6Z"/><path class="cls-1" d="M99.94,220.79V194.18h5.29v9.69h.07c1.27-1.91,3.29-2.87,6.08-2.87a7.15,7.15,0,0,1,5.44,2.42q2.54,2.81,2.53,7.72t-2.53,7.75a7.15,7.15,0,0,1-5.44,2.42q-4.69,0-6.34-3H105v2.46Zm14.12-9.62a7.86,7.86,0,0,0-1.08-4.32,4.09,4.09,0,0,0-6.86,0,9.12,9.12,0,0,0,0,8.61,4.09,4.09,0,0,0,6.86,0A7.8,7.8,0,0,0,114.06,211.17Z"/><path class="cls-1" d="M141,212.44h-13.9c.15,3.26,1.73,4.88,4.74,4.88a4.83,4.83,0,0,0,2.75-.82,2.91,2.91,0,0,0,1.42-1.67h4.66q-2.13,6.48-9,6.48a9.41,9.41,0,0,1-7.17-2.81,11.22,11.22,0,0,1,.07-14.61,9.33,9.33,0,0,1,7.1-2.89,8.51,8.51,0,0,1,7.27,3.5A11.65,11.65,0,0,1,141,212.44Zm-13.9-3.35h8.61c-.5-2.74-1.9-4.1-4.21-4.1a4.15,4.15,0,0,0-3.43,1.49A4.44,4.44,0,0,0,127.06,209.09Z"/><path class="cls-1" d="M143.16,214.53h5a2.94,2.94,0,0,0,1.27,2.49,4.79,4.79,0,0,0,2.79.75,4.64,4.64,0,0,0,2.31-.52,2.14,2.14,0,0,0,1.16-1.94c0-.75-.52-1.34-1.57-1.79a28,28,0,0,0-4.43-1.19,11.63,11.63,0,0,1-4.21-1.57,4,4,0,0,1-1.9-3.57q0-6.19,8.38-6.19,8,0,8.5,6.15h-5c-.13-1.74-1.33-2.61-3.62-2.61-2,0-2.94.6-2.94,1.79,0,.82.62,1.45,1.86,1.9.15.05,1.53.37,4.14,1a12.16,12.16,0,0,1,4.21,1.64,4.33,4.33,0,0,1,1.9,3.76,5.82,5.82,0,0,1-2.76,5.26,11.05,11.05,0,0,1-6,1.45,11.32,11.32,0,0,1-6.12-1.49A6.16,6.16,0,0,1,143.16,214.53Z"/><path class="cls-1" d="M169.54,194.18v4.36h-5.29v-4.36Zm-5.29,26.61V201.52h5.29v19.27Z"/><path class="cls-1" d="M187.47,220.79v-2.46h-.08q-1.75,3-5.85,3a7.61,7.61,0,0,1-6.48-3.17A11.55,11.55,0,0,1,172.9,211a10.9,10.9,0,0,1,2.16-6.93,7.6,7.6,0,0,1,6.37-3.06,6.38,6.38,0,0,1,5.74,2.87h0v-9.69h5.3v26.61Zm-.08-9.69a8.13,8.13,0,0,0-1-4.25,4.38,4.38,0,0,0-7.19,0,7.64,7.64,0,0,0-1,4.25,7.4,7.4,0,0,0,1.12,4.21,3.91,3.91,0,0,0,3.53,2C185.88,217.32,187.39,215.25,187.39,211.1Z"/><path class="cls-1" d="M201.55,207.45h-5.29a5.94,5.94,0,0,1,3-5.07,11.65,11.65,0,0,1,6-1.38q8.46,0,8.46,5.48v10a9.24,9.24,0,0,0,.67,4.29h-5.36a7.3,7.3,0,0,1-.38-1.87,8.51,8.51,0,0,1-6.48,2.39,7.16,7.16,0,0,1-4.66-1.42,5.28,5.28,0,0,1-1.9-4.36,5,5,0,0,1,2.05-4.39,11.22,11.22,0,0,1,4.51-1.46c2.86-.39,4.31-.61,4.36-.63,1.27-.32,1.9-1,1.9-1.9a2.29,2.29,0,0,0-1-2.16,4.81,4.81,0,0,0-2.39-.45Q201.81,204.54,201.55,207.45Zm6.93,5.89v-2a5.82,5.82,0,0,1-2.76.86,15.59,15.59,0,0,0-3.2.71,2.44,2.44,0,0,0-1.57,2.38c0,1.64,1.08,2.46,3.25,2.46Q208.48,217.77,208.48,213.34Z"/><path class="cls-1" d="M231.62,220.79v-2.46h-.07q-1.76,3-5.85,3a7.64,7.64,0,0,1-6.49-3.17,11.55,11.55,0,0,1-2.16-7.15,10.9,10.9,0,0,1,2.16-6.93,7.61,7.61,0,0,1,6.37-3.06,6.36,6.36,0,0,1,5.74,2.87h0v-9.69h5.29v26.61Zm-.07-9.69a8.23,8.23,0,0,0-1-4.25,4.38,4.38,0,0,0-7.19,0,7.64,7.64,0,0,0-1,4.25,7.48,7.48,0,0,0,1.12,4.21,3.94,3.94,0,0,0,3.54,2Q231.55,217.32,231.55,211.1Z"/><path class="cls-1" d="M268.55,201.52l-8.05,21.69a6.51,6.51,0,0,1-2.39,3.35,7.64,7.64,0,0,1-4.24,1,30.29,30.29,0,0,1-3.25-.19V223c1.87.15,2.9.21,3.1.19,1.36-.1,2.05-.91,2.05-2.42a3.15,3.15,0,0,0-.23-1.19l-6.78-18.08h5.67l4.36,13.19h.07l4.21-13.19Z"/><path class="cls-1" d="M281.26,220.79V194.18h11.47a11.52,11.52,0,0,1,8.61,3.28q3.46,3.47,3.46,9.88,0,6-3,9.61-3.19,3.84-9.09,3.84Zm5.84-21.69v16.77h5.22a6.15,6.15,0,0,0,4.59-1.79q2-2.09,2-6.19c0-2.85-.54-5-1.63-6.4q-1.87-2.38-6-2.39Z"/><path class="cls-1" d="M313.75,194.18v4.36h-5.29v-4.36Zm-5.29,26.61V201.52h5.29v19.27Z"/><path class="cls-1" d="M323,207.45H317.7a5.94,5.94,0,0,1,3-5.07,11.65,11.65,0,0,1,6-1.38q8.46,0,8.46,5.48v10c0,2.14.22,3.57.67,4.29h-5.36a7.3,7.3,0,0,1-.38-1.87,8.51,8.51,0,0,1-6.48,2.39,7.16,7.16,0,0,1-4.66-1.42,5.25,5.25,0,0,1-1.9-4.36,5,5,0,0,1,2-4.39,11.17,11.17,0,0,1,4.51-1.46c2.86-.39,4.31-.61,4.36-.63,1.27-.32,1.9-1,1.9-1.9a2.29,2.29,0,0,0-1-2.16,4.83,4.83,0,0,0-2.39-.45Q323.25,204.54,323,207.45Zm6.93,5.89v-2a5.82,5.82,0,0,1-2.76.86,15.59,15.59,0,0,0-3.2.71,2.43,2.43,0,0,0-1.57,2.38q0,2.46,3.24,2.46Q329.92,217.77,329.92,213.34Z"/><path class="cls-1" d="M339.31,220.79V194.18h5.29v9.69h.07q1.9-2.87,6.08-2.87a7.15,7.15,0,0,1,5.44,2.42q2.54,2.81,2.53,7.72t-2.53,7.75a7.15,7.15,0,0,1-5.44,2.42q-4.69,0-6.34-3h-.07v2.46Zm14.12-9.62a7.86,7.86,0,0,0-1.08-4.32,4.09,4.09,0,0,0-6.86,0,9.12,9.12,0,0,0,0,8.61,4.09,4.09,0,0,0,6.86,0A7.8,7.8,0,0,0,353.43,211.17Z"/><path class="cls-1" d="M380.34,212.44h-13.9c.15,3.26,1.72,4.88,4.73,4.88a4.84,4.84,0,0,0,2.76-.82,2.89,2.89,0,0,0,1.41-1.67H380q-2.13,6.48-9,6.48a9.42,9.42,0,0,1-7.17-2.81,11.22,11.22,0,0,1,.07-14.61A9.35,9.35,0,0,1,371,201a8.51,8.51,0,0,1,7.27,3.5A11.7,11.7,0,0,1,380.34,212.44Zm-13.9-3.35H375c-.49-2.74-1.9-4.1-4.21-4.1a4.12,4.12,0,0,0-3.42,1.49A4.38,4.38,0,0,0,366.44,209.09Z"/><path class="cls-1" d="M390.17,195.75v5.77h3.88v3.54h-3.88v9.54a1.8,1.8,0,0,0,2.24,2.24,8.4,8.4,0,0,0,1.64-.15v4.14a20.67,20.67,0,0,1-3.1.18c-4,0-6.07-1.53-6.07-4.58V205.06h-3.2v-3.54h3.2v-5.77Z"/><path class="cls-1" d="M414.84,212.44h-13.9c.15,3.26,1.73,4.88,4.73,4.88a4.84,4.84,0,0,0,2.76-.82,3,3,0,0,0,1.42-1.67h4.65q-2.12,6.48-9,6.48a9.44,9.44,0,0,1-7.18-2.81,10.26,10.26,0,0,1-2.66-7.33,10.13,10.13,0,0,1,2.74-7.28,9.32,9.32,0,0,1,7.1-2.89,8.48,8.48,0,0,1,7.26,3.5A11.65,11.65,0,0,1,414.84,212.44Zm-13.9-3.35h8.61c-.5-2.74-1.9-4.1-4.21-4.1a4.14,4.14,0,0,0-3.43,1.49A4.38,4.38,0,0,0,400.94,209.09Z"/><path class="cls-1" d="M417,214.53h5a2.94,2.94,0,0,0,1.26,2.49,4.82,4.82,0,0,0,2.8.75,4.64,4.64,0,0,0,2.31-.52,2.13,2.13,0,0,0,1.15-1.94c0-.75-.52-1.34-1.56-1.79a28.35,28.35,0,0,0-4.43-1.19,11.69,11.69,0,0,1-4.22-1.57,4.05,4.05,0,0,1-1.9-3.57q0-6.19,8.39-6.19c5.31,0,8.15,2.05,8.49,6.15h-5c-.12-1.74-1.33-2.61-3.61-2.61-2,0-2.94.6-2.94,1.79,0,.82.62,1.45,1.86,1.9.15.05,1.53.37,4.13,1a12.14,12.14,0,0,1,4.22,1.64,4.35,4.35,0,0,1,1.9,3.76,5.82,5.82,0,0,1-2.76,5.26,11.09,11.09,0,0,1-6,1.45,11.28,11.28,0,0,1-6.11-1.49A6.16,6.16,0,0,1,417,214.53Z"/><path class="cls-2" d="M159.91,70.38a6.44,6.44,0,0,1-4.55-11L212.88,1.88A6.43,6.43,0,1,1,222,11L164.45,68.49A6.38,6.38,0,0,1,159.91,70.38Z"/><path class="cls-3" d="M290.48,70.38a6.41,6.41,0,0,1-4.55-1.89L228.42,11a6.43,6.43,0,1,1,9.09-9.1L295,59.4a6.44,6.44,0,0,1-4.55,11Z"/><rect class="cls-1" x="174.18" y="20.79" width="104.03" height="102.07" rx="10.97" ry="10.97" transform="translate(117.04 -138.91) rotate(45)"/><path class="cls-2" d="M266.2,18H224.68c.51,3.37,2.35,13,7,12.4l.4-.05h0l3.1-.74h0a31.9,31.9,0,0,1,4.47-1c1.82-.23,3.6,1.45,4.22,2.11A27.93,27.93,0,0,1,239.92,39a9,9,0,0,1-2.35,2.83l.05.07a28,28,0,0,1-13.46,8.25l-.15.07c-1.23.53-1.19,1.27-1.19,1.27l0,0c-.31,1.79-.14,4.26,2.77,9.19,3.89,6.61,12.36,21,13.88,27.78a63.73,63.73,0,0,1,1.62,15.09,16.4,16.4,0,0,1-2.56,1.61l-.08,0c-.23.14-5.68,3.47-4.53,8.86a3.75,3.75,0,0,0,2.13,2.85,4.41,4.41,0,0,0,1.8.35h.11a19.81,19.81,0,0,1-2,3.06H266.2a9.38,9.38,0,0,0,9.35-9.35V27.31A9.38,9.38,0,0,0,266.2,18ZM227.28,59.65c-.59-1-1.06-1.87-1.42-2.65h0l-.14-.27-.28-.64c-.19-.54-.32-1.18,0-1.51.59-.65,3.17-1.62,3.38-2.75.16-.82.23-1,.55-1.24A30.47,30.47,0,0,0,246,31.9c.71,0,1.66.66,3,2.53,4.57,6.6,7.79,16.93,2.2,30.31A24.23,24.23,0,0,1,237.42,78C234.11,71.23,229.67,63.71,227.28,59.65Zm15.28,55.21s-6.43,3.73-7.45-1,4.07-7.79,4.07-7.79,10.66-5.08,4.06-11.69A12.5,12.5,0,0,0,241.53,93a23.07,23.07,0,0,0-2.46-10.49c6.39,1.21,12.64,4.55,15,12.08C258.82,109.61,242.56,114.86,242.56,114.86Z"/><path class="cls-1" d="M225.23,70.79l-.09-.15-.19-.26,0,0C225.13,70.83,225.26,70.9,225.23,70.79Z"/><path class="cls-1" d="M222.7,68.28l0,0-.25-.19C222.17,67.89,221.9,67.76,222.7,68.28Z"/><path class="cls-3" d="M231.47,91c-8.8-17.79-15.07-26.93-15.07-26.93s-9.31-17.27,5.76-25.57l1.39-.76a3.44,3.44,0,0,0,.1-1.9l-.4-.79a1.42,1.42,0,0,0-.16-.14,2.78,2.78,0,0,1-.16-.49c-2.58-5.13-6.54-14.07-5.85-15.73a2.52,2.52,0,0,1,.46-.72H184.19a9.38,9.38,0,0,0-9.35,9.35V111a9.38,9.38,0,0,0,9.35,9.35h38.08C225.05,118.34,239.45,107.1,231.47,91Zm-9.31,1.52c-2.46.61-8.6,3.2-15.53,2.87h-.22a20.6,20.6,0,0,1-15.58-6.28A13.69,13.69,0,0,1,188.9,87s-.78-1.17-1.31-2.09v0a23.75,23.75,0,0,1-2.53-10.95c0-9.74,5.24-17.64,11.71-17.64a9.08,9.08,0,0,1,6.37,2.84q.21.19.42.42l0,0a14.43,14.43,0,0,1,1,1.19l.11.11.09.13a2.45,2.45,0,0,0,.42.33,8.12,8.12,0,0,0,5.14,1.83,8,8,0,0,0,3.49-.79L224,80.71a18.91,18.91,0,0,1-23-9.78l0,0a1.91,1.91,0,0,0-.08-.29l-.21-.45a1.93,1.93,0,0,0-1.8-1.11,5,5,0,0,0-1.08.51,6.52,6.52,0,0,0-.92,3.47c.19,1.83,1.08,4.38,3.17,7.88,5.76,9.66,17.27,4.24,23,2.21a15.11,15.11,0,0,1,1.93-.54q2,3.72,4.24,8.22A59.5,59.5,0,0,0,222.16,92.51Z"/></g></g></svg>