<svg xmlns="http://www.w3.org/2000/svg" viewBox="0 0 444.99 47.77"><defs><style>.cls-1{fill:#08a8e1;}</style></defs><title>slogan</title><g id="Capa_2" data-name="Capa 2"><g id="Capa_1-2" data-name="Capa 1"><path class="cls-1" d="M28.71,2.85a2.89,2.89,0,0,0,0-.92,6.62,6.62,0,0,0-.13-.71v0c0-.11-.05-.21-.07-.29a.76.76,0,0,1,0-.3A.65.65,0,0,1,29,.13,3.71,3.71,0,0,1,29.81,0a6.18,6.18,0,0,1,2,.42A3.22,3.22,0,0,1,33,1.29a5.24,5.24,0,0,1,.88,1.49,12.93,12.93,0,0,1,.6,1.88,19.25,19.25,0,0,1,.38,2c.1.67.18,1.3.24,1.88l.1.64c.09,1,.18,2,.26,3.14s.16,2.3.24,3.49c.1,1.53.19,2.94.28,4.23s.2,2.43.34,3.43c.63-1.34,1.37-2.79,2.24-4.37s1.77-3.15,2.71-4.74L44,9.75q1.32-2.24,2.28-4V5.53a1.58,1.58,0,0,0,0-.58c0-.15-.08-.3-.11-.43a1,1,0,0,0,0-.2.67.67,0,0,1,0-.2.46.46,0,0,1,.28-.46A2.62,2.62,0,0,1,47,3.49a3.81,3.81,0,0,1,1.57.12,2.07,2.07,0,0,1,.93.61,2,2,0,0,1,.42.94,4.1,4.1,0,0,1,0,1.11,27.52,27.52,0,0,1-.42,3c-.21,1.18-.48,2.45-.79,3.81s-.64,2.75-1,4.2-.72,2.84-1.07,4.2-.68,2.59-.93,3.6-.47,1.9-.64,2.67-.29,1.44-.39,2-.17,1.13-.22,1.65a14.93,14.93,0,0,0,0,2.11,6.14,6.14,0,0,0,.37,1.85,3.64,3.64,0,0,0,.92,1.4,3.25,3.25,0,0,0,1.62.79.82.82,0,0,0,.37,0h1.12a2.71,2.71,0,0,1,.59,0,1.21,1.21,0,0,1,.43.15.34.34,0,0,1,.17.3c0,.21-.19.46-.58.74a13.94,13.94,0,0,1-3.32.29,5.73,5.73,0,0,1-3-.84,4.77,4.77,0,0,1-1.68-1.89,7.54,7.54,0,0,1-.69-2.62,17.05,17.05,0,0,1,0-3c.08-.91.21-1.82.37-2.73s.34-1.74.52-2.51c.12-.59.27-1.24.43-1.94l.5-2.16c.18-.75.36-1.5.55-2.25s.38-1.49.58-2.19l.43-1.72c.12-.51.25-1,.37-1.49s.23-1,.33-1.44.22-1,.35-1.51c-.13.27-.27.56-.43.85s-.36.67-.61,1.1l-.91,1.62L42,16.82c-.55,1-1.19,2.11-1.93,3.45S38.47,23.2,37.47,25v0a1.9,1.9,0,0,1-.12.36,2.3,2.3,0,0,0-.12.34,4.53,4.53,0,0,1-.53,1.08,1.59,1.59,0,0,1-1,.62,2.08,2.08,0,0,1-.92,0,1.42,1.42,0,0,1-.67-.3,1.64,1.64,0,0,1-.46-.52,2.61,2.61,0,0,1-.27-.67,19.59,19.59,0,0,1-.47-2.49q-.21-1.49-.36-3.21c-.1-1.15-.2-2.34-.28-3.57s-.15-2.41-.21-3.56l-.12-2.42c-.32,1-.62,2-.91,2.86l-.84,2.62c-.46,1.55-.91,3-1.34,4.33s-.88,2.66-1.36,3.95q-1,2.68-2.15,5.29a35.61,35.61,0,0,1-2.69,4.91,27.12,27.12,0,0,1-3.37,4.19A16.9,16.9,0,0,1,15.09,42a11.2,11.2,0,0,1-2.61,1,11.58,11.58,0,0,1-2.73.33,11.24,11.24,0,0,1-1.65-.12,9.33,9.33,0,0,1-1.58-.38h0a8.66,8.66,0,0,1-3.06-1.64,9.21,9.21,0,0,1-2.11-2.55A10.94,10.94,0,0,1,.22,35.37a13.68,13.68,0,0,1-.16-3.75,16,16,0,0,1,.47-2.85A17.14,17.14,0,0,1,2,25.06a15,15,0,0,1,2.28-3.17,12.29,12.29,0,0,1,2.92-2.3,8.78,8.78,0,0,1,3.37-1.09,5.15,5.15,0,0,1,2.91.6,5.24,5.24,0,0,1,1.9,1.9,8.11,8.11,0,0,1,1,2.79A13.38,13.38,0,0,1,16.48,27c0,.26-.07.52-.11.79s-.09.53-.13.77a.91.91,0,0,1,0,.22c0,.19-.08.41-.13.67a4.91,4.91,0,0,1-.22.71,2.13,2.13,0,0,1-.32.58.57.57,0,0,1-.46.24c-.27,0-.44,0-.52-.16a.66.66,0,0,1-.07-.49,1.45,1.45,0,0,1,0-.35l.1-.32a.65.65,0,0,0,.07-.21c0-.08,0-.12,0-.1.09-.33.18-.7.26-1.1s.13-.81.17-1.22a14.73,14.73,0,0,0,0-1.88,6.41,6.41,0,0,0-.33-1.72,3.46,3.46,0,0,0-.76-1.31,2.23,2.23,0,0,0-1.32-.64,2.85,2.85,0,0,0-2,.38,10.39,10.39,0,0,0-2.38,1.75,18.92,18.92,0,0,0-4.18,6,17,17,0,0,0-.57,1.94,17.32,17.32,0,0,0-.34,1.89,12.07,12.07,0,0,0,.07,2.7A8.46,8.46,0,0,0,4,38.45,5.19,5.19,0,0,0,5.2,40.14,3.46,3.46,0,0,0,6.93,41h0l.36,0H7.6a7.85,7.85,0,0,0,3.68-.9,13.34,13.34,0,0,0,3.22-2.38,21.54,21.54,0,0,0,2.77-3.41,44.07,44.07,0,0,0,2.32-4q1.05-2.05,1.89-4.08c.56-1.35,1-2.59,1.46-3.72.25-.67.57-1.58,1-2.72s.78-2.38,1.21-3.73.84-2.74,1.25-4.17.8-2.76,1.14-4,.62-2.32.85-3.24A13.32,13.32,0,0,0,28.71,2.85Z"/><path class="cls-1" d="M62.67,22.52c-.43.77-.91,1.57-1.43,2.41a13.52,13.52,0,0,1-1.81,2.29,9.31,9.31,0,0,1-2.32,1.7,6.51,6.51,0,0,1-3,.67A4,4,0,0,1,52,29.06a4.2,4.2,0,0,1-1.41-1.4,6.2,6.2,0,0,1-.78-2,11.5,11.5,0,0,1-.24-2.38v-.61a5,5,0,0,1,.05-.64v0a16.53,16.53,0,0,1,.48-2.72A18,18,0,0,1,51,16.65a15.72,15.72,0,0,1,1.3-2.44,11.3,11.3,0,0,1,1.64-2,7.14,7.14,0,0,1,1.92-1.35,4.78,4.78,0,0,1,2.12-.5,3.9,3.9,0,0,1,1.88.46A4.38,4.38,0,0,1,61.27,12a4.91,4.91,0,0,1,.84,1.66,5.65,5.65,0,0,1,.23,1.87,5.13,5.13,0,0,1-1,2.47,9.47,9.47,0,0,1-2,2,12.21,12.21,0,0,1-2.48,1.43,12.65,12.65,0,0,1-2.55.84q-.09.4-.15.84c0,.29-.08.59-.11.91a2.56,2.56,0,0,0,0,.39v.4a5.69,5.69,0,0,0,.09,1,2.55,2.55,0,0,0,.3.88,1.78,1.78,0,0,0,.6.65,2.05,2.05,0,0,0,.95.3,3.23,3.23,0,0,0,1.73-.58,8,8,0,0,0,1.52-1.35A13.78,13.78,0,0,0,60.58,24c.39-.62.74-1.18,1-1.69v0c.38-.67.74-1.33,1.07-2s.62-1.23.89-1.76l.43-.82c.16-.3.31-.56.44-.78a1.5,1.5,0,0,1,.35-.12.46.46,0,0,1,.35.13,1.14,1.14,0,0,1,.23.32l-.24.53c-.29.59-.64,1.29-1.07,2.12S63.18,21.65,62.67,22.52Zm-1.84-8.61c-.24-.47-.53-.7-.86-.7a1.67,1.67,0,0,0-1,.43,6.93,6.93,0,0,0-1.08,1.13,16.71,16.71,0,0,0-1.07,1.55c-.35.58-.66,1.15-.94,1.73s-.53,1.12-.74,1.64A8.37,8.37,0,0,0,54.7,21a7.6,7.6,0,0,0,1.89-.53,10.4,10.4,0,0,0,2.07-1.12,8,8,0,0,0,1.72-1.61,3.7,3.7,0,0,0,.81-2A3.36,3.36,0,0,0,60.83,13.91Z"/><path class="cls-1" d="M72,17l.15,0A1.38,1.38,0,0,1,72.5,17a.84.84,0,0,1,.49.26c-.41.85-.89,1.76-1.42,2.73s-1.09,1.91-1.67,2.8a24.4,24.4,0,0,1-1.74,2.42,8.27,8.27,0,0,1-1.7,1.61q-.55,2.59-1.21,5.24T63.8,37a40.49,40.49,0,0,1-1.75,4.43A18.81,18.81,0,0,1,60,45a8.63,8.63,0,0,1-2.45,2.2,4.59,4.59,0,0,1-2.89.56,2.78,2.78,0,0,1-1.21-.42,3.28,3.28,0,0,1-.92-.9,4.59,4.59,0,0,1-.6-1.28,5.62,5.62,0,0,1-.21-1.57,7,7,0,0,1,.21-1.67,18.81,18.81,0,0,1,1.59-4.08,22.8,22.8,0,0,1,2.35-3.53,34,34,0,0,1,2.87-3.14q1.55-1.49,3.17-2.92c.15-.68.31-1.49.49-2.42s.38-1.89.58-2.89.39-2,.59-3,.36-1.95.51-2.8.28-1.59.37-2.22.15-1,.17-1.26a2.44,2.44,0,0,0,0-.72c0-.21-.08-.4-.11-.58a.85.85,0,0,1,0-.25v-.18a.52.52,0,0,1,.31-.44,2,2,0,0,1,.62-.13,4.53,4.53,0,0,1,1.36.18,2.46,2.46,0,0,1,.92.5,2.31,2.31,0,0,1,.55.74,3.38,3.38,0,0,1,.26.92c-.06.82-.14,1.64-.23,2.46s-.19,1.68-.33,2.58-.29,1.86-.46,2.87-.37,2.12-.61,3.32a8.79,8.79,0,0,0,1.37-1.45c.46-.6.91-1.25,1.35-2s.86-1.44,1.26-2.2.76-1.48,1.1-2.15ZM53,43.49a1.87,1.87,0,0,0,.28,1,1,1,0,0,0,.94.42,2.08,2.08,0,0,0,1.08-.48,5.74,5.74,0,0,0,1-1,14.77,14.77,0,0,0,1.34-2.28c.43-.89.83-1.83,1.21-2.81s.72-2,1-3,.6-1.93.86-2.78c.08-.25.15-.5.21-.73s.14-.46.22-.68v0l.14-.45a4.07,4.07,0,0,0,.12-.48,30.23,30.23,0,0,0-3.23,3,25.64,25.64,0,0,0-2.78,3.56c-.17.29-.4.7-.68,1.24s-.55,1.11-.81,1.74a16.3,16.3,0,0,0-.67,1.93A6.65,6.65,0,0,0,53,43.49Zm14.72-37A3.39,3.39,0,0,1,68,7.4a2.29,2.29,0,0,1,0,.74,1.74,1.74,0,0,1-.32.7,2,2,0,0,1-1.83.76,1.42,1.42,0,0,1-1-.55,1.9,1.9,0,0,1-.17-1.56,3.51,3.51,0,0,1,.28-.74,3.19,3.19,0,0,1,.43-.65,1.68,1.68,0,0,1,.56-.44,1.23,1.23,0,0,1,.65-.13,1.26,1.26,0,0,1,.59.27,2.06,2.06,0,0,1,.53.71Z"/><path class="cls-1" d="M75.55,28.92a3.53,3.53,0,0,1-2.27-.73,5.42,5.42,0,0,1-1.47-1.86A8.55,8.55,0,0,1,71,23.84a15.26,15.26,0,0,1-.23-2.66v-.7a3.2,3.2,0,0,1,0-.64c.06-.76.15-1.47.26-2.13A8.58,8.58,0,0,1,71.53,16a2.88,2.88,0,0,1,1.11-.84A3.33,3.33,0,0,1,74,14.94a3.59,3.59,0,0,1,.78.09,3.53,3.53,0,0,1,.73.27,18.26,18.26,0,0,1,.41-2.53,8.26,8.26,0,0,1,.89-2.26,4.88,4.88,0,0,1,1.53-1.63,4.3,4.3,0,0,1,2.38-.62,3.8,3.8,0,0,1,2,.49A4.14,4.14,0,0,1,84,10.08a6.08,6.08,0,0,1,.79,2,12.09,12.09,0,0,1,.25,2.47c0,.48,0,.93-.07,1.36v0a20.4,20.4,0,0,1-.79,3.83,21.61,21.61,0,0,1-1.51,3.69,4.38,4.38,0,0,0,1.65-.71,7,7,0,0,0,1.32-1.24,11.64,11.64,0,0,0,1.09-1.61c.32-.58.64-1.17.94-1.76l.53-1,.23-.09a.49.49,0,0,1,.18-.05.36.36,0,0,1,.23.1.7.7,0,0,1,.2.38c-.28.64-.63,1.37-1.06,2.19A14.18,14.18,0,0,1,86.49,22a9.27,9.27,0,0,1-2,1.89,4.78,4.78,0,0,1-2.53.87,13.52,13.52,0,0,1-1.33,1.7,8.12,8.12,0,0,1-1.52,1.31,7,7,0,0,1-1.7.86A5.44,5.44,0,0,1,75.55,28.92Zm4.74-4.29a7.53,7.53,0,0,1-2.06-.94,5.88,5.88,0,0,1-1.43-1.38,6.17,6.17,0,0,1-.9-1.75,9.4,9.4,0,0,1-.44-2.06,6.83,6.83,0,0,0-.11.79c0,.27,0,.55-.09.82,0,.51-.07,1-.07,1.48a13.52,13.52,0,0,0,.11,1.71,5.88,5.88,0,0,0,.37,1.46,2.76,2.76,0,0,0,.7,1,1.48,1.48,0,0,0,1,.38,3.05,3.05,0,0,0,1.51-.38A5.37,5.37,0,0,0,80.29,24.63Zm-2.18-8a19.3,19.3,0,0,0,.12,2.1,8.66,8.66,0,0,0,.47,2.05,5,5,0,0,0,1,1.63,2.8,2.8,0,0,0,1.61.87,12,12,0,0,0,.85-1.64,19.43,19.43,0,0,0,.71-1.84,15.8,15.8,0,0,0,.51-1.94,15.22,15.22,0,0,0,.28-1.93,4.7,4.7,0,0,0,0-.63V14.7a9.92,9.92,0,0,0-.18-1.94,5.64,5.64,0,0,0-.55-1.58,3.11,3.11,0,0,0-1-1.07,2.43,2.43,0,0,0-1.38-.39,1.38,1.38,0,0,0-1,.39,3.16,3.16,0,0,0-.7,1.07,6.92,6.92,0,0,0-.46,1.55c-.11.59-.2,1.21-.26,1.85,0,.28-.06.6-.07.95S78.11,16.25,78.11,16.64Z"/><path class="cls-1" d="M92.33,40.55A6.82,6.82,0,0,1,90,40.14,5.32,5.32,0,0,1,88,38.9a6.21,6.21,0,0,1-1.34-2.1,8.23,8.23,0,0,1-.52-2.95,27.5,27.5,0,0,0-7.74-1c-1.19,0-2.43,0-3.72.16s-2.61.26-4,.46a41.71,41.71,0,0,0-5.58,1.24,27.53,27.53,0,0,0-5.06,2,18.58,18.58,0,0,0-4.14,2.9,12.08,12.08,0,0,0-2.82,3.83l-.06.13-.06.15a5.67,5.67,0,0,1-.33.74.79.79,0,0,1-.65.46,1,1,0,0,1-.8-.55,4.34,4.34,0,0,1-.51-1.2,5.26,5.26,0,0,1-.24-1.63,6,6,0,0,1,.32-1.95,9,9,0,0,1,.87-1.86A13,13,0,0,1,52.94,36a16,16,0,0,1,1.52-1.46,16.5,16.5,0,0,1,3.19-1.81,27.49,27.49,0,0,1,3.84-1.37c1.36-.38,2.78-.7,4.24-1s2.9-.45,4.34-.6c.77-.07,1.54-.13,2.31-.15s1.52,0,2.24,0a37.89,37.89,0,0,1,6.32.51,21.49,21.49,0,0,1,5.55,1.67c.26-1.47.55-2.84.89-4.12s.68-2.47,1.05-3.6.74-2.17,1.12-3.15.75-1.88,1.08-2.72c.13-.34.25-.67.37-1s.25-.66.4-1H91l-.34,0-.46,0c-.18,0-.33,0-.45,0l-1.63,3.37-.7-.15a1.42,1.42,0,0,1-.33-.11c.27-.56.55-1.1.82-1.63s.56-1.07.83-1.63a3.14,3.14,0,0,1-1.48-.4,2.92,2.92,0,0,1-1-.92,3.62,3.62,0,0,1-.49-1.27A5,5,0,0,1,85.75,12a6.2,6.2,0,0,1,.39-1.64A5.43,5.43,0,0,1,87,8.84,4.5,4.5,0,0,1,88.3,7.78a3.3,3.3,0,0,1,1.64-.41A1.69,1.69,0,0,1,91.41,8a2.75,2.75,0,0,1,.39,1.83,10,10,0,0,1-.22,1.25c-.11.44-.22.87-.34,1.29s-.24.79-.37,1.14l-.31.87a.21.21,0,0,0,0,.12.26.26,0,0,1-.05.14,4.9,4.9,0,0,0,.61.07c.24,0,.46,0,.69,0h1.55c.29,0,.55,0,.79,0a2.48,2.48,0,0,1,.65.16c.4.17.6.59.6,1.24a5.82,5.82,0,0,1-.19,1.33c-.13.5-.28,1-.46,1.55s-.37,1-.57,1.55-.4,1-.55,1.34l-.22.48c-.08.18-.14.34-.19.48-.3.86-.62,1.75-.93,2.67s-.63,1.83-.93,2.74-.56,1.8-.8,2.68-.44,1.72-.6,2.51c.37.27.7.54,1,.79s.58.55.87.86a4.07,4.07,0,0,1,.72-2.48,3.9,3.9,0,0,1,1.79-1.39A5.1,5.1,0,0,1,96,30.9a3.65,3.65,0,0,1,2.74,1.19,3.84,3.84,0,0,1,.76,1.24,4.38,4.38,0,0,1,.26,1.5,4.12,4.12,0,0,1-.38,1.66,5.7,5.7,0,0,1-1.14,1.62,7.8,7.8,0,0,1-1.87,1.37,9.73,9.73,0,0,1-2.57,1l-.76.08A6.51,6.51,0,0,1,92.33,40.55ZM88.57,13.28a1.38,1.38,0,0,0,.11.76.89.89,0,0,0,.61.42c.06-.15.16-.38.3-.7s.28-.67.42-1.06.27-.79.38-1.19a6.61,6.61,0,0,0,.22-1c0-.33,0-.5-.1-.5s-.29.11-.5.32a4.47,4.47,0,0,0-.61.83,7.38,7.38,0,0,0-.54,1.09A3.8,3.8,0,0,0,88.57,13.28ZM92.16,37.7a3.89,3.89,0,0,0-.69-1.16,6,6,0,0,0-1.68-1.33,8,8,0,0,0,.28,1.43,3.86,3.86,0,0,0,.6,1.26,2.72,2.72,0,0,0,1,.88A2.23,2.23,0,0,0,93,39a4.4,4.4,0,0,0,1.79-.58,4.68,4.68,0,0,0,1.28-1.08A5,5,0,0,0,96.88,36a4.15,4.15,0,0,0,.26-1.39,2.4,2.4,0,0,0-.38-1.37,1.36,1.36,0,0,0-1.22-.56,2.3,2.3,0,0,0-.35,0,2.53,2.53,0,0,0-.42.1,2.1,2.1,0,0,0-.78.41,3.47,3.47,0,0,0-.65.72,3.66,3.66,0,0,0-.63,2A3.87,3.87,0,0,0,93,37.41l0,0c.1.17.12.31.06.39a1,1,0,0,1-.32.28.36.36,0,0,1-.37,0,.81.81,0,0,1-.21-.32Z"/><path class="cls-1" d="M109.11,17.81c0,.05-.12.09-.28.14a1.09,1.09,0,0,1-.32.07.61.61,0,0,1-.5-.28,2.76,2.76,0,0,0,.13-.49c0-.16,0-.32.08-.49a6.1,6.1,0,0,0-.08-1.26,3.79,3.79,0,0,0-.39-1.19,2.75,2.75,0,0,0-.75-.87,1.76,1.76,0,0,0-1.1-.35,2.81,2.81,0,0,0-1.7.66,9.24,9.24,0,0,0-1.65,1.7,17.55,17.55,0,0,0-1.48,2.33c-.47.87-.88,1.72-1.24,2.58a24.62,24.62,0,0,0-.87,2.4,9,9,0,0,0-.38,1.82,5.71,5.71,0,0,0,0,.72,2,2,0,0,0,.13.71,1.22,1.22,0,0,0,.36.52,1,1,0,0,0,.67.21,2.37,2.37,0,0,0,1.56-.76,11.31,11.31,0,0,0,1.61-1.83,24.87,24.87,0,0,0,1.45-2.26c.44-.79.82-1.48,1.12-2.07a5.57,5.57,0,0,1,.23-.62,1.6,1.6,0,0,0,.11-.79.36.36,0,0,1,.26-.45,2.84,2.84,0,0,1,.67-.13,3.28,3.28,0,0,1,2,.66,2,2,0,0,1,.63,1.28,4.58,4.58,0,0,1-.16,1.65c-.15.59-.26,1.14-.34,1.65,0,.12,0,.3-.09.56s-.07.53-.1.83-.06.61-.08.92a3.59,3.59,0,0,0,0,.78.59.59,0,0,0,.21.41c.11.06.26,0,.47-.17a11.49,11.49,0,0,0,1.22-1.49c.43-.62.86-1.27,1.28-2s.83-1.39,1.22-2.1l1.07-1.95c.17-.39.35-.75.54-1.09s.34-.63.46-.85a.92.92,0,0,1,.36-.07.46.46,0,0,1,.35.13,1.14,1.14,0,0,1,.23.32l-.24.53c-.23.44-.48,1-.78,1.55s-.61,1.22-1,1.87-.71,1.32-1.1,2-.78,1.3-1.17,1.91a17.34,17.34,0,0,1-1.2,1.66,7.55,7.55,0,0,1-1.16,1.21,3.71,3.71,0,0,1-1.15.67A3.45,3.45,0,0,1,107,29a1.61,1.61,0,0,1-1.34-.61,4.06,4.06,0,0,1-.71-1.46,7.4,7.4,0,0,1-.25-1.76,8.43,8.43,0,0,1,.07-1.51v-.06s0-.07,0-.18a20.77,20.77,0,0,1-1.42,2.09,13.16,13.16,0,0,1-1.65,1.81,8.31,8.31,0,0,1-1.83,1.28,4.25,4.25,0,0,1-2,.49,3.45,3.45,0,0,1-1.58-.33,2.88,2.88,0,0,1-1-.89,3.87,3.87,0,0,1-.55-1.29A7.11,7.11,0,0,1,94.56,25v-.33a2.06,2.06,0,0,1,0-.36,15.07,15.07,0,0,1,.61-2.66,21.26,21.26,0,0,1,1.2-2.95,22.43,22.43,0,0,1,1.69-2.91,14.74,14.74,0,0,1,2.09-2.5,10.33,10.33,0,0,1,2.41-1.75,5.6,5.6,0,0,1,2.63-.66,3.56,3.56,0,0,1,1.87.5,4.59,4.59,0,0,1,1.36,1.31,5.48,5.48,0,0,1,.8,1.79,6.18,6.18,0,0,1,.18,2,5.08,5.08,0,0,1-.29,1.29Z"/><path class="cls-1" d="M132.64,13c0-.21,0-.33-.12-.38h-.05l-.07,0a2,2,0,0,0-1.27.69A12.81,12.81,0,0,0,129.64,15c-.52.69-1,1.46-1.56,2.29s-1,1.62-1.45,2.37l-.94,1.5c-.28.45-.53.83-.76,1.13l0,0c-.26.74-.47,1.45-.64,2.12a15.57,15.57,0,0,0-.35,1.88,5.91,5.91,0,0,0,0,1.26,4.08,4.08,0,0,0,.39,1.21l0,.11a.6.6,0,0,1,0,.18c0,.2-.2.31-.55.31a3.44,3.44,0,0,1-1.45-.28,2.47,2.47,0,0,1-1-.76,3.29,3.29,0,0,1-.51-1.14,6.16,6.16,0,0,1-.16-1.39v-.37a2.05,2.05,0,0,1,0-.37,13.81,13.81,0,0,1,.37-2c.18-.72.39-1.44.61-2.18s.47-1.45.73-2.16.51-1.38.75-2q.51-1.29.87-2.31a6.85,6.85,0,0,0,.4-1.52c0-.29,0-.43-.21-.43a1.63,1.63,0,0,0-1,.47,8.68,8.68,0,0,0-1.18,1.22c-.42.5-.84,1.06-1.27,1.68s-.85,1.25-1.24,1.88-.77,1.23-1.09,1.79-.61,1-.83,1.38v0l-.41.67h0a16.8,16.8,0,0,0-.65,2.23,21,21,0,0,0-.41,2.39,7.3,7.3,0,0,0,0,1.44,8.58,8.58,0,0,0,.18.93,1.14,1.14,0,0,1,.07.38c0,.21-.24.31-.57.31a2.7,2.7,0,0,1-1.43-.34,2.56,2.56,0,0,1-.88-.91,4,4,0,0,1-.46-1.28,8.9,8.9,0,0,1-.13-1.46c0-.16,0-.32,0-.48s0-.33,0-.5a26.47,26.47,0,0,1,.51-3.32c.25-1.12.51-2.21.78-3.24.21-.86.4-1.69.59-2.47a13.58,13.58,0,0,0,.34-2,2.92,2.92,0,0,0,0-.67c0-.19,0-.37-.08-.53s0-.15,0-.21,0-.14,0-.22a.52.52,0,0,1,.3-.43,1.35,1.35,0,0,1,.59-.12,3.15,3.15,0,0,1,1.47.3,2.25,2.25,0,0,1,.86.78,2.6,2.6,0,0,1,.38,1.06,5.25,5.25,0,0,1,0,1.19,9.94,9.94,0,0,1-.19,1.3c-.1.44-.2.85-.31,1.23a5.55,5.55,0,0,1-.15.55,3.37,3.37,0,0,0-.09.46c.2-.27.41-.57.61-.89l.63-1c.43-.67.88-1.34,1.34-2a16.46,16.46,0,0,1,1.45-1.83,7.49,7.49,0,0,1,1.59-1.33,3.42,3.42,0,0,1,1.8-.52,2.2,2.2,0,0,1,1.11.26,1.81,1.81,0,0,1,.7.67,2.81,2.81,0,0,1,.33.95,5.16,5.16,0,0,1,.06,1.12,11.37,11.37,0,0,1-.33,1.82q-.27,1-.63,2l.23-.34.23-.35c.44-.69.9-1.38,1.37-2.08a14,14,0,0,1,1.49-1.89A8,8,0,0,1,131.78,11a3.4,3.4,0,0,1,1.84-.54,2.33,2.33,0,0,1,1.08.23,1.63,1.63,0,0,1,.67.63,2.54,2.54,0,0,1,.32.95,5,5,0,0,1,0,1.18,16.24,16.24,0,0,1-.61,3c-.33,1.11-.7,2.21-1.12,3.32s-.7,2-1,3a12.48,12.48,0,0,0-.55,2.54,4.44,4.44,0,0,0,0,.55,2.91,2.91,0,0,0,.06.6,1.5,1.5,0,0,0,.18.48.39.39,0,0,0,.34.19c.24,0,.54-.2.9-.59a15.93,15.93,0,0,0,1.17-1.49c.42-.61.85-1.28,1.28-2s.84-1.44,1.22-2.13.72-1.3,1-1.85.49-.95.62-1.19a.21.21,0,0,1,.07-.14l.07-.14h0a3.19,3.19,0,0,1,.22-.39.48.48,0,0,1,.38-.14.52.52,0,0,1,.36.13,1.14,1.14,0,0,1,.23.33L139.8,19c-.32.64-.67,1.33-1.06,2.07s-.79,1.49-1.22,2.24-.88,1.48-1.35,2.18a17.5,17.5,0,0,1-1.42,1.85,7.3,7.3,0,0,1-1.48,1.3,2.74,2.74,0,0,1-1.47.49,2.63,2.63,0,0,1-2.28-.9,3.81,3.81,0,0,1-.66-2.31c0-.11,0-.24,0-.37s0-.27,0-.4a12.37,12.37,0,0,1,.37-2c.18-.71.38-1.42.61-2.15s.46-1.44.73-2.15.51-1.38.75-2l.85-2.3A6.44,6.44,0,0,0,132.64,13Z"/><path class="cls-1" d="M143.27,28.92a3.58,3.58,0,0,1-2.28-.73,5.67,5.67,0,0,1-1.47-1.86,8.86,8.86,0,0,1-.79-2.49,16.3,16.3,0,0,1-.23-2.66v-.7a4.16,4.16,0,0,1,.05-.64c.07-.76.15-1.47.26-2.13a9.31,9.31,0,0,1,.44-1.67,2.8,2.8,0,0,1,1.11-.84,3.28,3.28,0,0,1,1.3-.26,3.46,3.46,0,0,1,.78.09,3.33,3.33,0,0,1,.73.27,18.29,18.29,0,0,1,.42-2.53,8,8,0,0,1,.89-2.26A4.88,4.88,0,0,1,146,8.88a4.27,4.27,0,0,1,2.38-.62,3.83,3.83,0,0,1,2,.49,4.11,4.11,0,0,1,1.36,1.33,6.08,6.08,0,0,1,.79,2,11.43,11.43,0,0,1,.25,2.47,11.78,11.78,0,0,1-.07,1.36v0a20.4,20.4,0,0,1-.79,3.83,20.83,20.83,0,0,1-1.51,3.69,4.36,4.36,0,0,0,1.66-.71,7.27,7.27,0,0,0,1.31-1.24,11.64,11.64,0,0,0,1.09-1.61c.33-.58.64-1.17,1-1.76l.52-1,.23-.09a.49.49,0,0,1,.18-.05.36.36,0,0,1,.24.1.7.7,0,0,1,.19.38q-.4,1-1,2.19A14.18,14.18,0,0,1,154.21,22a9.31,9.31,0,0,1-2,1.89,4.75,4.75,0,0,1-2.52.87,14.51,14.51,0,0,1-1.33,1.7,8.45,8.45,0,0,1-1.52,1.31,7,7,0,0,1-1.7.86A5.44,5.44,0,0,1,143.27,28.92ZM148,24.63a7.39,7.39,0,0,1-2.06-.94,5.93,5.93,0,0,1-1.44-1.38,6.74,6.74,0,0,1-.9-1.75,10,10,0,0,1-.44-2.06c0,.26-.08.52-.11.79s-.05.55-.08.82c0,.51-.07,1-.07,1.48A11.89,11.89,0,0,0,143,23.3a5.47,5.47,0,0,0,.37,1.46,2.63,2.63,0,0,0,.69,1,1.51,1.51,0,0,0,1,.38,3,3,0,0,0,1.51-.38A5.4,5.4,0,0,0,148,24.63Zm-2.18-8a19.3,19.3,0,0,0,.12,2.1,8.2,8.2,0,0,0,.47,2.05,5.14,5.14,0,0,0,1,1.63,2.86,2.86,0,0,0,1.62.87,14.72,14.72,0,0,0,.85-1.64,19.37,19.37,0,0,0,.7-1.84,17.85,17.85,0,0,0,.52-1.94,15.15,15.15,0,0,0,.27-1.93,3.48,3.48,0,0,0,0-.63V14.7a9.92,9.92,0,0,0-.18-1.94,5.34,5.34,0,0,0-.55-1.58,3.11,3.11,0,0,0-1-1.07,2.42,2.42,0,0,0-1.37-.39,1.38,1.38,0,0,0-1,.39,3.17,3.17,0,0,0-.71,1.07,7.5,7.5,0,0,0-.45,1.55c-.11.59-.2,1.21-.27,1.85,0,.28,0,.6-.07.95S145.83,16.25,145.83,16.64Z"/><path class="cls-1" d="M155.67,7.45a2.73,2.73,0,0,1,1-.58,3.75,3.75,0,0,1,1.19-.19,3.48,3.48,0,0,1,.79.09,1.89,1.89,0,0,1,.67.32,1.62,1.62,0,0,1,.47.56,1.74,1.74,0,0,1,.18.82,5.32,5.32,0,0,1-.34,1.7c-.22.64-.49,1.32-.79,2-.14.36-.29.73-.44,1.1s-.29.74-.42,1.12c.62.93,1.21,1.86,1.77,2.8s1.05,1.86,1.48,2.73a19.26,19.26,0,0,1,1,2.47,7,7,0,0,1,.41,2c.37-.55.73-1.11,1.08-1.7s.69-1.18,1-1.76.63-1.14.9-1.67.5-1,.7-1.39a.13.13,0,0,1,0-.07.05.05,0,0,0,0,0l.19-.38h0a2.41,2.41,0,0,1,.22-.38.42.42,0,0,1,.37-.14.65.65,0,0,1,.63.47l-.15.29-.07.07-.82,1.63c-.32.62-.66,1.28-1,2s-.76,1.38-1.18,2.09-.83,1.37-1.26,2A17.8,17.8,0,0,1,162,27.13a9.39,9.39,0,0,1-1.29,1.26,7.87,7.87,0,0,1-1.28.72,12.52,12.52,0,0,1-1.45.52,11.2,11.2,0,0,1-1.5.34,9.07,9.07,0,0,1-1.42.12A7.49,7.49,0,0,1,153.6,30a3.82,3.82,0,0,1-1.18-.44,2.13,2.13,0,0,1-.75-.74,1.8,1.8,0,0,1-.22-1.08,1.43,1.43,0,0,1,.35-.68.88.88,0,0,1,.68-.34.3.3,0,0,1,.34.26,2,2,0,0,1,0,.55,1,1,0,0,0,.18.62,1.09,1.09,0,0,0,.48.36,2.66,2.66,0,0,0,.66.16,5.77,5.77,0,0,0,.72,0,3.43,3.43,0,0,0,2.77-1.22,5.47,5.47,0,0,0,.94-3.14,6.66,6.66,0,0,0-.18-1.45c-.12-.54-.28-1.09-.47-1.67a16.19,16.19,0,0,0-.67-1.7,11.05,11.05,0,0,0-.84-1.53l-1.05,2.37-.86-.31,1.27-3a9.3,9.3,0,0,1-1.37-2.51,8.5,8.5,0,0,1-.52-2.93,6.54,6.54,0,0,1,.39-2.23A4.19,4.19,0,0,1,155.67,7.45Zm1.82,5.48.46-1.17q.26-.63.45-1.2a9.83,9.83,0,0,0,.28-1.05,1,1,0,0,0,0-.65h0c-.1-.19-.2-.3-.31-.31s-.3.07-.47.27a3.33,3.33,0,0,0-.47.81,7.72,7.72,0,0,0-.36,1.17,6.29,6.29,0,0,0-.14,1.29,3.3,3.3,0,0,0,.29,1.41Z"/><path class="cls-1" d="M184.89,5.39a12.14,12.14,0,0,1-.18,1.34c-.08.47-.18,1-.3,1.53a16.54,16.54,0,0,1,2,.12,7.23,7.23,0,0,1,1.79.45,5.07,5.07,0,0,1,1.47.92,4.37,4.37,0,0,1,1.06,1.5h0a.36.36,0,0,1-.07.41.35.35,0,0,1-.45.09,5.05,5.05,0,0,0-2.46-1.35,13.37,13.37,0,0,0-3.12-.35H184q-.24,1.08-.51,2.16c-.19.72-.37,1.45-.57,2.2l-.45,1.82-.07.31c-.11.42-.26,1-.43,1.69s-.35,1.47-.52,2.3-.31,1.64-.43,2.47a15.86,15.86,0,0,0-.18,2.25,6,6,0,0,0,.11,1.21,1.06,1.06,0,0,0,.39.71.78.78,0,0,0,.7,0,4.09,4.09,0,0,0,1.17-.64A8.84,8.84,0,0,0,184.69,25a22.1,22.1,0,0,0,1.34-2c.42-.7.81-1.41,1.17-2.12s.68-1.35,1-1.92h0c.23-.45.43-.85.61-1.19a7.08,7.08,0,0,1,.54-.85,1,1,0,0,1,.27,0,.58.58,0,0,1,.55.45l-.86,1.8h0c-.51,1.07-1.07,2.19-1.68,3.37a26.26,26.26,0,0,1-1.95,3.26,12.35,12.35,0,0,1-2.21,2.45,3.79,3.79,0,0,1-2.47,1,3.58,3.58,0,0,1-3-1.05,4.62,4.62,0,0,1-.84-2.95c0-.17,0-.35,0-.52s0-.36,0-.55c0-.55.16-1.29.33-2.23s.38-2,.62-3.1.51-2.31.79-3.54l.84-3.58.34-1.37-1.56.12c-.5,0-1,0-1.44,0a8.28,8.28,0,0,1-2.56-.36A2.45,2.45,0,0,1,173,8.83a1.07,1.07,0,0,1-.08-.27.58.58,0,0,1,0-.27.24.24,0,0,1,.18-.14.47.47,0,0,1,.35.11l0,0a6,6,0,0,0,1.57.44,12.6,12.6,0,0,0,1.76.11c.57,0,1.19,0,1.84-.08s1.29-.11,1.92-.18c.22-1,.41-1.89.57-2.64s.26-1.31.29-1.64a5.06,5.06,0,0,0,0-.69q0-.27-.09-.51a2.08,2.08,0,0,1,0-.23,1.5,1.5,0,0,1,0-.2.55.55,0,0,1,.3-.44,1.38,1.38,0,0,1,.59-.11,3.23,3.23,0,0,1,1.5.29,2.18,2.18,0,0,1,.86.75,2.53,2.53,0,0,1,.37,1.07A6.18,6.18,0,0,1,184.89,5.39Z"/><path class="cls-1" d="M192.43,11.35a2.07,2.07,0,0,1,.94,1.28,5.06,5.06,0,0,1,.16,1.79,11.62,11.62,0,0,1-.38,2.09c-.19.7-.37,1.29-.55,1.76s-.31,1-.51,1.66-.39,1.3-.57,2-.34,1.34-.49,2a14.33,14.33,0,0,0-.3,1.7,5.07,5.07,0,0,0,0,.91c0,.26.13.38.27.38a1.39,1.39,0,0,0,.81-.45,10.58,10.58,0,0,0,1.07-1.2q.59-.73,1.2-1.65c.41-.6.81-1.22,1.2-1.84s.75-1.21,1.09-1.77.62-1,.86-1.42l0,0,.45-1.35c.13-.43.26-.84.37-1.25s.21-.82.29-1.24.13-.88.16-1.36a1.27,1.27,0,0,0,0-.39,2.57,2.57,0,0,0-.07-.4.66.66,0,0,1,0-.23.21.21,0,0,0,0-.12.76.76,0,0,1,.39-.66,2.57,2.57,0,0,1,1.14-.18,1.66,1.66,0,0,1,.94.23,1.58,1.58,0,0,1,.56.59,2.33,2.33,0,0,1,.26.88,5,5,0,0,1,0,1,19.16,19.16,0,0,1-.55,3c-.29,1.1-.59,2.17-.91,3.22s-.55,1.85-.79,2.68a9.76,9.76,0,0,0-.41,2.11,4.79,4.79,0,0,0,0,.56,2.93,2.93,0,0,0,.06.61,1.35,1.35,0,0,0,.17.49.36.36,0,0,0,.32.21c.25,0,.57-.22,1-.67a16,16,0,0,0,1.26-1.67q.69-1,1.38-2.19c.46-.78.89-1.52,1.27-2.22s.7-1.3,1-1.8.4-.78.45-.86l.07-.17h0a1.8,1.8,0,0,1,.23-.38.41.41,0,0,1,.37-.14.49.49,0,0,1,.37.13,1.14,1.14,0,0,1,.23.32c-.12.19-.24.42-.39.69s-.28.55-.4.82c-.32.62-.67,1.3-1,2s-.77,1.49-1.19,2.23-.86,1.47-1.33,2.17a15.1,15.1,0,0,1-1.42,1.86,7.46,7.46,0,0,1-1.47,1.3,2.73,2.73,0,0,1-1.49.48,3.8,3.8,0,0,1-1.4-.23,2.26,2.26,0,0,1-.91-.65,2.56,2.56,0,0,1-.49-1,5.64,5.64,0,0,1-.14-1.28v-.7a7.29,7.29,0,0,1,.08-.76,8.08,8.08,0,0,1,.16-.8.24.24,0,0,0-.06.09.27.27,0,0,1-.06.1c-.42.65-.85,1.3-1.29,1.94a15.41,15.41,0,0,1-1.42,1.73,6.68,6.68,0,0,1-1.59,1.26,3.61,3.61,0,0,1-1.81.48,1.85,1.85,0,0,1-1.73-.83,4.23,4.23,0,0,1-.49-2.19c0-.16,0-.32,0-.48s0-.32,0-.5a14.58,14.58,0,0,1,.24-1.71c.11-.62.24-1.24.39-1.88s.32-1.28.49-1.93.34-1.26.5-1.85c.28-1,.52-1.87.73-2.73a14.33,14.33,0,0,0,.4-2.08,1.91,1.91,0,0,0,0-.64c0-.17-.08-.31-.11-.44v0a.59.59,0,0,1,0-.19v-.17a.49.49,0,0,1,.29-.45,1.4,1.4,0,0,1,.6-.12,3.67,3.67,0,0,1,1,.14A4,4,0,0,1,192.43,11.35Z"/><path class="cls-1" d="M229.87,22.52c-.43.77-.91,1.57-1.44,2.41a13,13,0,0,1-1.81,2.29,9.14,9.14,0,0,1-2.32,1.7,6.51,6.51,0,0,1-3,.67,4,4,0,0,1-2.11-.53,4.14,4.14,0,0,1-1.42-1.4,6,6,0,0,1-.77-2,11.5,11.5,0,0,1-.24-2.38v-.61a4.88,4.88,0,0,1,0-.64v0a16.53,16.53,0,0,1,.48-2.72,19.25,19.25,0,0,1,.92-2.68,15.76,15.76,0,0,1,1.31-2.44,10.88,10.88,0,0,1,1.64-2,7.1,7.1,0,0,1,1.91-1.35,4.82,4.82,0,0,1,2.12-.5,3.59,3.59,0,0,1,1.88.5,4.46,4.46,0,0,1,1.39,1.28,5.37,5.37,0,0,1,.82,1.78,6.17,6.17,0,0,1,.2,2q0,.21-.06.48a4.05,4.05,0,0,1-.12.5.91.91,0,0,1-.27.39.69.69,0,0,1-.49.16l-.22-.07a.94.94,0,0,1-.26-.19c.07-.23.12-.44.16-.64a4,4,0,0,0,.08-.56,6.49,6.49,0,0,0,0-1,3.69,3.69,0,0,0-.19-.88,2,2,0,0,0-.37-.62.75.75,0,0,0-.54-.24,1.76,1.76,0,0,0-1.07.48A7.21,7.21,0,0,0,224.94,15a18.31,18.31,0,0,0-1.2,1.89,22.65,22.65,0,0,0-1.09,2.27c-.33.79-.61,1.6-.86,2.42a16.59,16.59,0,0,0-.54,2.37c0,.13,0,.27,0,.42s0,.29,0,.42a6.1,6.1,0,0,0,.1,1.08,3.19,3.19,0,0,0,.31.9,1.65,1.65,0,0,0,.58.62,1.68,1.68,0,0,0,.91.23,3.22,3.22,0,0,0,1.77-.54,8.05,8.05,0,0,0,1.55-1.34A14.21,14.21,0,0,0,227.74,24c.4-.62.76-1.19,1.08-1.72v0c.38-.67.73-1.33,1.06-2l.9-1.76.43-.82c.16-.3.3-.56.43-.78a1.38,1.38,0,0,1,.36-.12.48.48,0,0,1,.35.13,1.13,1.13,0,0,1,.22.32l-.24.53c-.28.59-.64,1.29-1.06,2.12S230.38,21.65,229.87,22.52Z"/><path class="cls-1" d="M243.11,17.81a.64.64,0,0,1-.28.14,1.15,1.15,0,0,1-.32.07.64.64,0,0,1-.51-.28,2.86,2.86,0,0,0,.14-.49c0-.16.05-.32.08-.49a6.1,6.1,0,0,0-.08-1.26,3.8,3.8,0,0,0-.4-1.19,2.72,2.72,0,0,0-.74-.87,1.76,1.76,0,0,0-1.1-.35,2.79,2.79,0,0,0-1.7.66,8.64,8.64,0,0,0-1.65,1.7,18.66,18.66,0,0,0-1.49,2.33c-.46.87-.87,1.72-1.23,2.58a22.25,22.25,0,0,0-.87,2.4,9.1,9.1,0,0,0-.39,1.82c0,.23,0,.47,0,.72a2.3,2.3,0,0,0,.13.71,1.22,1.22,0,0,0,.36.52,1,1,0,0,0,.67.21,2.37,2.37,0,0,0,1.57-.76,11.27,11.27,0,0,0,1.6-1.83,22.88,22.88,0,0,0,1.45-2.26c.45-.79.83-1.48,1.13-2.07a4.09,4.09,0,0,1,.23-.62,1.6,1.6,0,0,0,.1-.79.38.38,0,0,1,.27-.45,2.75,2.75,0,0,1,.67-.13,3.22,3.22,0,0,1,2,.66,2,2,0,0,1,.64,1.28,5.07,5.07,0,0,1-.16,1.65c-.15.59-.27,1.14-.35,1.65,0,.12,0,.3-.08.56s-.08.53-.11.83-.05.61-.07.92a3.05,3.05,0,0,0,0,.78.59.59,0,0,0,.21.41c.1.06.26,0,.47-.17a11.49,11.49,0,0,0,1.22-1.49c.43-.62.86-1.27,1.28-2s.83-1.39,1.22-2.1.75-1.36,1.06-1.95c.18-.39.36-.75.54-1.09s.34-.63.47-.85a.86.86,0,0,1,.36-.07.48.48,0,0,1,.35.13,1.13,1.13,0,0,1,.22.32l-.23.53c-.23.44-.49,1-.78,1.55s-.62,1.22-1,1.87-.71,1.32-1.1,2-.78,1.3-1.17,1.91a19.27,19.27,0,0,1-1.2,1.66,8.54,8.54,0,0,1-1.16,1.21,3.82,3.82,0,0,1-1.15.67A3.54,3.54,0,0,1,241,29a1.63,1.63,0,0,1-1.34-.61,4,4,0,0,1-.7-1.46,7.41,7.41,0,0,1-.26-1.76,8.31,8.31,0,0,1,.08-1.51v-.06a1,1,0,0,1,0-.18,22.59,22.59,0,0,1-1.42,2.09,12.61,12.61,0,0,1-1.66,1.81,8.09,8.09,0,0,1-1.83,1.28,4.22,4.22,0,0,1-2,.49,3.45,3.45,0,0,1-1.58-.33,2.88,2.88,0,0,1-1-.89,3.68,3.68,0,0,1-.55-1.29,7.1,7.1,0,0,1-.17-1.56v-.33a2,2,0,0,1,0-.36,14.23,14.23,0,0,1,.61-2.66,22.48,22.48,0,0,1,1.19-2.95,23.64,23.64,0,0,1,1.69-2.91,15.26,15.26,0,0,1,2.1-2.5,10.28,10.28,0,0,1,2.4-1.75,5.64,5.64,0,0,1,2.64-.66,3.5,3.5,0,0,1,1.86.5,4.62,4.62,0,0,1,1.37,1.31,5.7,5.7,0,0,1,.8,1.79,6.18,6.18,0,0,1,.18,2,5.54,5.54,0,0,1-.29,1.29Z"/><path class="cls-1" d="M257.13,2.63a1.45,1.45,0,0,1,1,.37,2.85,2.85,0,0,1,.63.91,4,4,0,0,1,.31,1.18,7.6,7.6,0,0,1,.05,1.13,10.57,10.57,0,0,1-.83,3.21,18.88,18.88,0,0,1-1.68,3.12,26,26,0,0,1-2.23,2.9,30.8,30.8,0,0,1-2.47,2.5c-.17.64-.31,1.22-.41,1.73s-.22,1.08-.33,1.72-.2,1.27-.26,1.89a4.15,4.15,0,0,0,0,.59v.54a5.2,5.2,0,0,0,.31,1.93,1.11,1.11,0,0,0,1.1.79,2.86,2.86,0,0,0,1.94-.88A12.32,12.32,0,0,0,256,24.08a26.18,26.18,0,0,0,1.62-2.73c.49-1,.92-1.81,1.29-2.56.19-.43.37-.81.53-1.12a5,5,0,0,1,.38-.67.54.54,0,0,1,.2-.1.69.69,0,0,1,.18,0,.46.46,0,0,1,.35.13,1.14,1.14,0,0,1,.23.32L260,19h0q-.51,1.08-1.08,2.25c-.38.78-.78,1.55-1.21,2.3s-.87,1.47-1.34,2.15a13.09,13.09,0,0,1-1.46,1.81,6.57,6.57,0,0,1-1.58,1.23,3.43,3.43,0,0,1-1.71.46,3.48,3.48,0,0,1-1.93-.5,3.66,3.66,0,0,1-1.19-1.31,5.46,5.46,0,0,1-.62-1.81,11.44,11.44,0,0,1-.18-2v-.66a4.35,4.35,0,0,1,0-.63v0c0-.57.15-1.29.29-2.15s.33-1.81.55-2.84.5-2.1.81-3.22.68-2.22,1.08-3.3a32.44,32.44,0,0,1,1.32-3.1,16.56,16.56,0,0,1,1.54-2.59,7.81,7.81,0,0,1,1.77-1.77A3.44,3.44,0,0,1,257.13,2.63Zm.34,1.89c-.26,0-.59.3-1,.88a17,17,0,0,0-1.3,2.39c-.46,1-.93,2.22-1.41,3.6s-.92,2.9-1.34,4.53a15.65,15.65,0,0,0,1.38-1.44,24.8,24.8,0,0,0,1.76-2.31,21.38,21.38,0,0,0,1.58-2.77A8.51,8.51,0,0,0,258,6.56c0-.21,0-.43,0-.66a3.52,3.52,0,0,0-.06-.66,1.52,1.52,0,0,0-.18-.51C257.67,4.59,257.58,4.52,257.47,4.52Z"/><path class="cls-1" d="M260.91,13.26a3.56,3.56,0,0,0,.08-.67,2,2,0,0,1,0-.45.52.52,0,0,1,.39-.38,1.48,1.48,0,0,1,.62,0,4.14,4.14,0,0,1,1.46.79,1.49,1.49,0,0,1,.45,1.13,3.4,3.4,0,0,1-.08.74c-.06.27-.13.56-.23.88q-.24.77-.54,1.86c-.2.72-.39,1.49-.58,2.3s-.37,1.6-.52,2.4-.26,1.53-.34,2.2c0,.16,0,.34,0,.52s0,.34,0,.47a4.27,4.27,0,0,0,.17,1.35q.17.51.57.54a1.29,1.29,0,0,0,.78-.41,7.73,7.73,0,0,0,.94-1.08,17.36,17.36,0,0,0,1-1.52c.35-.56.7-1.15,1.06-1.77s.68-1.22,1-1.82.61-1.14.86-1.64.39-.72.54-1A6.25,6.25,0,0,1,269,17a.92.92,0,0,1,.36-.12c.21,0,.41.15.6.47l-.27.51c-.31.64-.67,1.36-1.07,2.16s-.84,1.62-1.31,2.44-1,1.63-1.47,2.41A20.82,20.82,0,0,1,264.29,27a8.25,8.25,0,0,1-1.53,1.46,2.51,2.51,0,0,1-1.46.55,2.71,2.71,0,0,1-1.4-.33,2.51,2.51,0,0,1-.91-.92,4,4,0,0,1-.49-1.37,8.93,8.93,0,0,1-.15-1.69c0-.19,0-.38,0-.58a5.68,5.68,0,0,1,0-.59,25.73,25.73,0,0,1,.81-4.61c.42-1.5.87-3,1.37-4.53l.33-1.1Zm4.34-6.15a4.34,4.34,0,0,1,.37.87,2.15,2.15,0,0,1,.08.73A1.66,1.66,0,0,1,265,10a2.19,2.19,0,0,1-1.3.44,1.32,1.32,0,0,1-1-.46,2,2,0,0,1-.38-1.48,2.71,2.71,0,0,1,.16-.77,3.37,3.37,0,0,1,.36-.71,1.76,1.76,0,0,1,.52-.5A1.13,1.13,0,0,1,264,6.3a1.24,1.24,0,0,1,.64.19A2,2,0,0,1,265.25,7.11Z"/><path class="cls-1" d="M280.06,29.25a3.67,3.67,0,0,1-3-1.06,4.65,4.65,0,0,1-.87-3c0-.14,0-.3,0-.47s0-.33,0-.51v-.26a1.15,1.15,0,0,1,0-.19,1.52,1.52,0,0,0,0-.23c0-.09,0-.21.06-.37-.44.73-.93,1.46-1.46,2.17a14.55,14.55,0,0,1-1.68,1.94,8.52,8.52,0,0,1-1.88,1.39,4.25,4.25,0,0,1-2,.53,3.56,3.56,0,0,1-1.58-.32,2.8,2.8,0,0,1-1-.88,3.39,3.39,0,0,1-.57-1.28,6.87,6.87,0,0,1-.17-1.52V24.8a2.34,2.34,0,0,1,0-.38,14.05,14.05,0,0,1,.61-2.66,21.88,21.88,0,0,1,1.2-3,25.13,25.13,0,0,1,1.68-2.91,15.69,15.69,0,0,1,2.1-2.5,10.44,10.44,0,0,1,2.4-1.74,5.67,5.67,0,0,1,2.64-.66,3.5,3.5,0,0,1,1.19.19,3.79,3.79,0,0,1,1,.55l.24-.91c.18-.75.34-1.47.5-2.15s.31-1.32.44-1.9.23-1.07.31-1.5a10.18,10.18,0,0,0,.14-1,3.84,3.84,0,0,0,0-.69c0-.19,0-.36-.09-.51l0-.22a1.55,1.55,0,0,1,0-.21.45.45,0,0,1,.3-.44,1.66,1.66,0,0,1,.61-.11,3.29,3.29,0,0,1,1.49.29,2,2,0,0,1,.85.75,2.71,2.71,0,0,1,.36,1.07,6.2,6.2,0,0,1,0,1.22c0,.37-.11.87-.22,1.49s-.26,1.33-.43,2.12-.37,1.64-.59,2.56-.43,1.87-.66,2.84c-.06.32-.15.71-.26,1.16s-.23.94-.36,1.45q-.26,1-.54,2.16c-.18.77-.35,1.53-.51,2.29s-.29,1.48-.38,2.18a12.93,12.93,0,0,0-.15,1.83v.41a1.36,1.36,0,0,0,.05.36c.1.65.38,1,.86,1a1.86,1.86,0,0,0,.64-.14,4.55,4.55,0,0,0,.68-.37,7.65,7.65,0,0,0,.65-.51,5.5,5.5,0,0,0,.54-.54,12.32,12.32,0,0,0,1.2-1.56c.38-.59.75-1.18,1.09-1.79s.66-1.21,1-1.8.56-1.14.8-1.62.41-.83.56-1.15a4.79,4.79,0,0,1,.37-.67.48.48,0,0,1,.21-.09l.18,0a.48.48,0,0,1,.32.13,1.38,1.38,0,0,1,.23.33,9.35,9.35,0,0,0-.47.95c-.15.35-.31.7-.49,1l-.89,1.79c-.3.61-.61,1.22-.94,1.83s-.66,1.19-1,1.77a18.08,18.08,0,0,1-1.06,1.58c-.27.33-.56.67-.86,1a7.66,7.66,0,0,1-1,.9,5.07,5.07,0,0,1-1.12.66A3.76,3.76,0,0,1,280.06,29.25Zm-3-9.65c.17-.79.36-1.62.55-2.47s.39-1.72.6-2.6a2.34,2.34,0,0,1,.13-.49,3.51,3.51,0,0,0,.13-.49,1.86,1.86,0,0,0-1.15-.36,2.81,2.81,0,0,0-1.7.66,8.93,8.93,0,0,0-1.65,1.7,16.92,16.92,0,0,0-1.48,2.33c-.47.86-.88,1.72-1.24,2.57a23.17,23.17,0,0,0-.87,2.41,9,9,0,0,0-.38,1.82,3.36,3.36,0,0,0,0,.72,3,3,0,0,0,.13.7,1.23,1.23,0,0,0,.35.53,1,1,0,0,0,.67.2,2,2,0,0,0,1.1-.38,6.17,6.17,0,0,0,1.15-1A11,11,0,0,0,274.47,24c.36-.52.71-1.05,1-1.59s.63-1.05.89-1.56l.68-1.3Z"/><path class="cls-1" d="M299.79,17.81a.64.64,0,0,1-.28.14,1.15,1.15,0,0,1-.32.07.61.61,0,0,1-.5-.28,4,4,0,0,0,.13-.49c0-.16.05-.32.08-.49a6.1,6.1,0,0,0-.08-1.26,3.8,3.8,0,0,0-.4-1.19,2.72,2.72,0,0,0-.74-.87,1.76,1.76,0,0,0-1.1-.35,2.79,2.79,0,0,0-1.7.66,8.93,8.93,0,0,0-1.65,1.7,18.66,18.66,0,0,0-1.49,2.33c-.46.87-.87,1.72-1.23,2.58a22.25,22.25,0,0,0-.87,2.4,9.1,9.1,0,0,0-.39,1.82c0,.23,0,.47,0,.72a2.3,2.3,0,0,0,.13.71,1.22,1.22,0,0,0,.36.52,1,1,0,0,0,.67.21A2.37,2.37,0,0,0,292,26a11.81,11.81,0,0,0,1.61-1.83A24.78,24.78,0,0,0,295,21.89c.45-.79.83-1.48,1.13-2.07a4.09,4.09,0,0,1,.23-.62,1.5,1.5,0,0,0,.1-.79.38.38,0,0,1,.27-.45,2.75,2.75,0,0,1,.67-.13,3.22,3.22,0,0,1,2,.66,2,2,0,0,1,.64,1.28,5.07,5.07,0,0,1-.16,1.65c-.15.59-.27,1.14-.35,1.65,0,.12,0,.3-.08.56s-.08.53-.11.83-.05.61-.07.92a3.05,3.05,0,0,0,0,.78.59.59,0,0,0,.21.41c.11.06.26,0,.47-.17a11.49,11.49,0,0,0,1.22-1.49c.43-.62.86-1.27,1.28-2s.83-1.39,1.22-2.1l1.07-1.95c.17-.39.35-.75.53-1.09s.34-.63.47-.85a.86.86,0,0,1,.36-.07.48.48,0,0,1,.35.13,1.39,1.39,0,0,1,.23.32l-.24.53c-.23.44-.49,1-.78,1.55s-.62,1.22-1,1.87-.71,1.32-1.1,2-.78,1.3-1.17,1.91a19.27,19.27,0,0,1-1.2,1.66,8.54,8.54,0,0,1-1.16,1.21,3.71,3.71,0,0,1-1.15.67,3.54,3.54,0,0,1-1.32.27,1.63,1.63,0,0,1-1.34-.61,4,4,0,0,1-.7-1.46,7.41,7.41,0,0,1-.26-1.76,8.31,8.31,0,0,1,.08-1.51v-.06a1,1,0,0,1,0-.18A22.59,22.59,0,0,1,294,25.5a12.61,12.61,0,0,1-1.66,1.81,8.09,8.09,0,0,1-1.83,1.28,4.22,4.22,0,0,1-2,.49,3.45,3.45,0,0,1-1.58-.33,2.88,2.88,0,0,1-1-.89,3.68,3.68,0,0,1-.55-1.29,7.1,7.1,0,0,1-.17-1.56v-.33a2,2,0,0,1,0-.36,14.23,14.23,0,0,1,.61-2.66,22.48,22.48,0,0,1,1.19-2.95,23.64,23.64,0,0,1,1.69-2.91,15.26,15.26,0,0,1,2.1-2.5,10.28,10.28,0,0,1,2.4-1.75,5.67,5.67,0,0,1,2.64-.66,3.5,3.5,0,0,1,1.86.5,4.62,4.62,0,0,1,1.37,1.31,5.7,5.7,0,0,1,.8,1.79,6.18,6.18,0,0,1,.18,2,5.54,5.54,0,0,1-.29,1.29Z"/><path class="cls-1" d="M316.92,29.25a3.64,3.64,0,0,1-3-1.06,4.6,4.6,0,0,1-.88-3c0-.14,0-.3,0-.47s0-.33,0-.51v-.26a1.15,1.15,0,0,1,0-.19c0-.07,0-.14,0-.23a2.24,2.24,0,0,1,0-.37c-.44.73-.93,1.46-1.46,2.17a13.86,13.86,0,0,1-1.68,1.94,8.52,8.52,0,0,1-1.88,1.39,4.25,4.25,0,0,1-2,.53,3.56,3.56,0,0,1-1.58-.32,2.8,2.8,0,0,1-1-.88A3.55,3.55,0,0,1,303,26.7a6.88,6.88,0,0,1-.16-1.52V24.8a2.36,2.36,0,0,1,0-.38,14.87,14.87,0,0,1,.61-2.66,21.88,21.88,0,0,1,1.2-3,25.13,25.13,0,0,1,1.68-2.91,15.69,15.69,0,0,1,2.1-2.5,10.44,10.44,0,0,1,2.4-1.74,5.67,5.67,0,0,1,2.64-.66,3.5,3.5,0,0,1,1.19.19,3.79,3.79,0,0,1,1,.55l.24-.91.51-2.15c.16-.69.3-1.32.43-1.9s.23-1.07.31-1.5a7.85,7.85,0,0,0,.14-1,3.84,3.84,0,0,0,0-.69c0-.19-.05-.36-.08-.51a2.07,2.07,0,0,1,0-.22,1.55,1.55,0,0,1,0-.21.45.45,0,0,1,.3-.44,1.66,1.66,0,0,1,.61-.11,3.29,3.29,0,0,1,1.49.29,2,2,0,0,1,.85.75,2.71,2.71,0,0,1,.36,1.07,6.2,6.2,0,0,1,0,1.22c0,.37-.11.87-.22,1.49s-.25,1.33-.43,2.12-.37,1.64-.59,2.56l-.65,2.84c-.07.32-.16.71-.27,1.16s-.23.94-.36,1.45q-.26,1-.54,2.16c-.18.77-.35,1.53-.51,2.29s-.29,1.48-.38,2.18a12.93,12.93,0,0,0-.15,1.83v.41a1.36,1.36,0,0,0,0,.36c.1.65.38,1,.86,1a1.81,1.81,0,0,0,.64-.14,4.11,4.11,0,0,0,.68-.37,7.65,7.65,0,0,0,.65-.51,7.07,7.07,0,0,0,.55-.54,13.29,13.29,0,0,0,1.19-1.56c.39-.59.75-1.18,1.09-1.79s.66-1.21,1-1.8l.8-1.62c.22-.45.41-.83.56-1.15a4.6,4.6,0,0,1,.38-.67.4.4,0,0,1,.2-.09l.18,0a.46.46,0,0,1,.32.13,1.38,1.38,0,0,1,.23.33,9.35,9.35,0,0,0-.47.95c-.15.35-.31.7-.49,1l-.88,1.79c-.31.61-.62,1.22-1,1.83s-.66,1.19-1,1.77a16.08,16.08,0,0,1-1.06,1.58c-.27.33-.56.67-.86,1a8.3,8.3,0,0,1-1,.9,5.14,5.14,0,0,1-1.13.66A3.76,3.76,0,0,1,316.92,29.25Zm-3-9.65c.17-.79.36-1.62.55-2.47s.39-1.72.6-2.6a2.34,2.34,0,0,1,.13-.49,2.52,2.52,0,0,0,.13-.49,1.86,1.86,0,0,0-1.15-.36,2.81,2.81,0,0,0-1.7.66,8.93,8.93,0,0,0-1.65,1.7,16.92,16.92,0,0,0-1.48,2.33c-.47.86-.88,1.72-1.24,2.57s-.65,1.66-.87,2.41a9,9,0,0,0-.38,1.82,4.16,4.16,0,0,0,0,.72,2.56,2.56,0,0,0,.14.7,1.13,1.13,0,0,0,.34.53,1,1,0,0,0,.67.2,2,2,0,0,0,1.1-.38,6.17,6.17,0,0,0,1.15-1A11,11,0,0,0,311.34,24c.36-.52.7-1.05,1-1.59s.62-1.05.88-1.56l.68-1.3Z"/><path class="cls-1" d="M348.26,29.25a3.65,3.65,0,0,1-3-1.06,4.65,4.65,0,0,1-.88-3c0-.14,0-.3,0-.47s0-.33,0-.51v-.26c0-.07,0-.13,0-.19s0-.14,0-.23,0-.21.06-.37c-.45.73-.94,1.46-1.46,2.17a14.61,14.61,0,0,1-1.69,1.94,8.29,8.29,0,0,1-1.88,1.39,4.2,4.2,0,0,1-2,.53,3.59,3.59,0,0,1-1.58-.32,2.8,2.8,0,0,1-1-.88,3.54,3.54,0,0,1-.56-1.28,6.87,6.87,0,0,1-.17-1.52V24.8c0-.13,0-.26,0-.38a14.87,14.87,0,0,1,.61-2.66,21.88,21.88,0,0,1,1.2-3,25.22,25.22,0,0,1,1.69-2.91,15.65,15.65,0,0,1,2.09-2.5,10.28,10.28,0,0,1,2.41-1.74,5.6,5.6,0,0,1,2.63-.66,3.59,3.59,0,0,1,1.2.19,3.94,3.94,0,0,1,1,.55l.24-.91c.17-.75.34-1.47.5-2.15s.3-1.32.43-1.9.23-1.07.31-1.5.13-.77.15-1a3.74,3.74,0,0,0,0-.69c0-.19,0-.36-.08-.51a2.07,2.07,0,0,1,0-.22c0-.08,0-.14,0-.21a.48.48,0,0,1,.3-.44,1.7,1.7,0,0,1,.61-.11,3.36,3.36,0,0,1,1.5.29,2.15,2.15,0,0,1,.85.75,2.71,2.71,0,0,1,.36,1.07,7.09,7.09,0,0,1,0,1.22,14.17,14.17,0,0,1-.22,1.49c-.11.62-.25,1.33-.43,2.12s-.37,1.64-.58,2.56-.44,1.87-.66,2.84c-.06.32-.15.71-.26,1.16s-.24.94-.36,1.45q-.27,1-.54,2.16c-.19.77-.36,1.53-.52,2.29s-.28,1.48-.38,2.18a12.79,12.79,0,0,0-.14,1.83v.41a1.37,1.37,0,0,0,0,.36c.1.65.39,1,.87,1a1.76,1.76,0,0,0,.63-.14,4.11,4.11,0,0,0,.68-.37,6.34,6.34,0,0,0,.65-.51,5.65,5.65,0,0,0,.55-.54,14.51,14.51,0,0,0,1.2-1.56c.38-.59.74-1.18,1.09-1.79s.66-1.21,1-1.8l.81-1.62c.22-.45.41-.83.56-1.15a3.93,3.93,0,0,1,.37-.67.4.4,0,0,1,.2-.09l.18,0a.44.44,0,0,1,.32.13,1.14,1.14,0,0,1,.23.33,9.39,9.39,0,0,0-.46.95c-.16.35-.32.7-.5,1-.28.58-.58,1.17-.88,1.79s-.62,1.22-.95,1.83-.66,1.19-1,1.77a18.11,18.11,0,0,1-1.07,1.58c-.27.33-.56.67-.86,1a7.58,7.58,0,0,1-1,.9,5.14,5.14,0,0,1-1.13.66A3.65,3.65,0,0,1,348.26,29.25Zm-3-9.65c.18-.79.36-1.62.55-2.47s.39-1.72.6-2.6a3.17,3.17,0,0,1,.13-.49,2.52,2.52,0,0,0,.13-.49,1.86,1.86,0,0,0-1.15-.36,2.79,2.79,0,0,0-1.69.66,8.68,8.68,0,0,0-1.66,1.7,17.92,17.92,0,0,0-1.48,2.33c-.46.86-.87,1.72-1.23,2.57s-.65,1.66-.88,2.41a9,9,0,0,0-.38,1.82,3.39,3.39,0,0,0,0,.72,2.56,2.56,0,0,0,.13.7,1.15,1.15,0,0,0,.35.53,1,1,0,0,0,.67.2,2,2,0,0,0,1.1-.38,6.87,6.87,0,0,0,1.15-1A11.94,11.94,0,0,0,342.67,24c.36-.52.7-1.05,1-1.59s.62-1.05.88-1.56l.69-1.3Z"/><path class="cls-1" d="M368,22.52c-.43.77-.91,1.57-1.44,2.41a13.47,13.47,0,0,1-1.8,2.29,9.37,9.37,0,0,1-2.33,1.7,6.51,6.51,0,0,1-3,.67,4,4,0,0,1-2.11-.53,4.14,4.14,0,0,1-1.42-1.4,6.2,6.2,0,0,1-.78-2,12.24,12.24,0,0,1-.23-2.38v-.61a4.88,4.88,0,0,1,0-.64v0a16.53,16.53,0,0,1,.48-2.72,19.25,19.25,0,0,1,.92-2.68,15.76,15.76,0,0,1,1.31-2.44,10.88,10.88,0,0,1,1.64-2,7.1,7.1,0,0,1,1.91-1.35,4.82,4.82,0,0,1,2.12-.5,3.88,3.88,0,0,1,1.88.46A4.53,4.53,0,0,1,366.63,12a5.3,5.3,0,0,1,.84,1.66,5.39,5.39,0,0,1,.22,1.87,5,5,0,0,1-.95,2.47,9.52,9.52,0,0,1-2,2,12.13,12.13,0,0,1-2.47,1.43,13.08,13.08,0,0,1-2.55.84,7.34,7.34,0,0,0-.16.84c0,.29-.07.59-.11.91,0,.13,0,.26,0,.39v.4a6.8,6.8,0,0,0,.08,1,3,3,0,0,0,.3.88,2,2,0,0,0,.6.65,2.13,2.13,0,0,0,1,.3,3.19,3.19,0,0,0,1.72-.58,8,8,0,0,0,1.52-1.35A13.78,13.78,0,0,0,365.93,24c.4-.62.74-1.18,1.05-1.69v0c.38-.67.73-1.33,1.06-2l.9-1.76.43-.82c.16-.3.3-.56.43-.78a1.38,1.38,0,0,1,.36-.12.48.48,0,0,1,.35.13,1.13,1.13,0,0,1,.22.32l-.23.53c-.29.59-.65,1.29-1.07,2.12S368.54,21.65,368,22.52Zm-1.84-8.61c-.24-.47-.53-.7-.87-.7a1.69,1.69,0,0,0-1,.43,6.93,6.93,0,0,0-1.08,1.13,16.7,16.7,0,0,0-1.06,1.55c-.35.58-.67,1.15-.95,1.73s-.52,1.12-.74,1.64a9.36,9.36,0,0,0-.44,1.28,7.84,7.84,0,0,0,1.89-.53A10.4,10.4,0,0,0,364,19.32a8.2,8.2,0,0,0,1.71-1.61,3.62,3.62,0,0,0,.81-2A3.26,3.26,0,0,0,366.19,13.91Z"/><path class="cls-1" d="M398.17,17.28a.65.65,0,0,1,.5-.14,1.3,1.3,0,0,1,.53.33,8.53,8.53,0,0,1-2.11,3,7,7,0,0,1-1.46,1A5.29,5.29,0,0,1,394,22a4,4,0,0,1-1.33,0,4.43,4.43,0,0,1-1.33-.49q-.52,1-1.05,2l-1,1.68c-.29.48-.61.95-1,1.43a8.54,8.54,0,0,1-1.17,1.3,5.43,5.43,0,0,1-1.44.92,3.83,3.83,0,0,1-1.74.3,2.17,2.17,0,0,1-1.36-.47,3.15,3.15,0,0,1-.86-1.21,6.71,6.71,0,0,1-.45-1.78,16.49,16.49,0,0,1-.14-2.17c0-.62,0-1.27.08-1.94s.1-1.33.18-2,.14-1.28.22-1.89.16-1.19.24-1.71c.11-.69.2-1.28.27-1.79a7.47,7.47,0,0,0,.07-1.11,2.3,2.3,0,0,0-.11-.58c-.06-.15-.11-.3-.16-.43l-.07-.15a.74.74,0,0,1,0-.18.44.44,0,0,1,.19-.48,1.42,1.42,0,0,1,.57-.19,4.22,4.22,0,0,1,1,0,2.58,2.58,0,0,1,.74.15,2.44,2.44,0,0,1,1.15,1.18,4.4,4.4,0,0,1,.43,1.71,8.57,8.57,0,0,1,0,1c0,.35-.05.7-.08,1s-.08.67-.14,1-.1.58-.15.81-.13.75-.2,1.2-.15.92-.22,1.41-.14,1-.19,1.51-.1,1-.13,1.44a.74.74,0,0,1,0,.12c0,.05,0,.09,0,.12s0,.3,0,.49,0,.37,0,.56,0,.48,0,.71a2.91,2.91,0,0,0,.14.63,1.25,1.25,0,0,0,.27.48.75.75,0,0,0,.49.22,1.11,1.11,0,0,0,.73-.16,3.56,3.56,0,0,0,.67-.52,4.3,4.3,0,0,0,.59-.68,7.38,7.38,0,0,0,.45-.7c.32-.51.67-1.1,1-1.76s.77-1.43,1.2-2.29a5.61,5.61,0,0,1-1-2.12,11.84,11.84,0,0,1-.31-2.71,15.45,15.45,0,0,1,.36-3.27,12.66,12.66,0,0,1,1-3,6.6,6.6,0,0,1,1.59-2.13,2.77,2.77,0,0,1,2.06-.73,1.76,1.76,0,0,1,1.45.7A3,3,0,0,1,396,9.1a8.22,8.22,0,0,1-.23,1.8,20.66,20.66,0,0,1-.6,2.1c-.25.73-.54,1.48-.86,2.25s-.66,1.52-1,2.27L392,20.3a2.43,2.43,0,0,0,1.58.64,1.83,1.83,0,0,0,.32,0l.35-.07a4.41,4.41,0,0,0,1.18-.49,6,6,0,0,0,1.07-.82,7,7,0,0,0,.93-1,6.67,6.67,0,0,0,.7-1.18Zm-4-9.33a.94.94,0,0,0-.91.28,3.92,3.92,0,0,0-.8,1.17,10,10,0,0,0-.66,1.75c-.19.67-.36,1.38-.5,2.11a21.49,21.49,0,0,0-.33,2.19c-.07.73-.1,1.39-.1,2a5.29,5.29,0,0,0,.23,1.89l1-1.85c.28-.59.59-1.25.93-2s.65-1.49.93-2.24a20.23,20.23,0,0,0,.71-2.17,7.19,7.19,0,0,0,.27-1.76C394.93,8.51,394.68,8.06,394.17,8Z"/><path class="cls-1" d="M399.19,13.26a3.56,3.56,0,0,0,.08-.67,2,2,0,0,1,0-.45.52.52,0,0,1,.39-.38,1.48,1.48,0,0,1,.62,0,4.14,4.14,0,0,1,1.46.79,1.49,1.49,0,0,1,.45,1.13,3.4,3.4,0,0,1-.08.74c-.06.27-.13.56-.23.88q-.24.77-.54,1.86c-.2.72-.39,1.49-.58,2.3s-.37,1.6-.52,2.4-.26,1.53-.34,2.2c0,.16,0,.34,0,.52s0,.34,0,.47a4.27,4.27,0,0,0,.17,1.35q.17.51.57.54a1.29,1.29,0,0,0,.78-.41,7.73,7.73,0,0,0,.94-1.08,17.36,17.36,0,0,0,1-1.52c.35-.56.7-1.15,1.06-1.77s.68-1.22,1-1.82.61-1.14.86-1.64.39-.72.54-1a6.25,6.25,0,0,1,.42-.73.92.92,0,0,1,.36-.12c.21,0,.41.15.6.47l-.26.51L406.88,20c-.4.81-.84,1.62-1.31,2.44s-1,1.63-1.47,2.41A20.82,20.82,0,0,1,402.57,27,8.25,8.25,0,0,1,401,28.41a2.51,2.51,0,0,1-1.46.55,2.71,2.71,0,0,1-1.4-.33,2.51,2.51,0,0,1-.91-.92,4,4,0,0,1-.49-1.37,8.93,8.93,0,0,1-.15-1.69c0-.19,0-.38,0-.58s0-.4,0-.59a24.89,24.89,0,0,1,.82-4.61c.41-1.5.86-3,1.36-4.53l.33-1.1Zm4.34-6.15a4.34,4.34,0,0,1,.37.87,2.15,2.15,0,0,1,.08.73,1.66,1.66,0,0,1-.69,1.26,2.18,2.18,0,0,1-1.29.44,1.33,1.33,0,0,1-1-.46,2,2,0,0,1-.38-1.48,2.71,2.71,0,0,1,.16-.77,3.37,3.37,0,0,1,.36-.71,1.76,1.76,0,0,1,.52-.5,1.13,1.13,0,0,1,.63-.19,1.24,1.24,0,0,1,.64.19A2,2,0,0,1,403.53,7.11Z"/><path class="cls-1" d="M418.34,29.25a3.67,3.67,0,0,1-3-1.06,4.65,4.65,0,0,1-.87-3c0-.14,0-.3,0-.47s0-.33,0-.51v-.26a1.15,1.15,0,0,1,0-.19,1.52,1.52,0,0,0,0-.23c0-.09,0-.21.06-.37-.44.73-.93,1.46-1.46,2.17a14.55,14.55,0,0,1-1.68,1.94,8.52,8.52,0,0,1-1.88,1.39,4.25,4.25,0,0,1-2,.53,3.56,3.56,0,0,1-1.58-.32,2.8,2.8,0,0,1-1-.88,3.39,3.39,0,0,1-.57-1.28,6.88,6.88,0,0,1-.16-1.52V24.8a2.36,2.36,0,0,1,0-.38,14.87,14.87,0,0,1,.61-2.66,21.88,21.88,0,0,1,1.2-3,25.13,25.13,0,0,1,1.68-2.91,15.69,15.69,0,0,1,2.1-2.5,10.44,10.44,0,0,1,2.4-1.74A5.67,5.67,0,0,1,414.9,11a3.5,3.5,0,0,1,1.19.19,3.79,3.79,0,0,1,1,.55l.24-.91.51-2.15c.15-.69.3-1.32.43-1.9s.23-1.07.31-1.5a10.18,10.18,0,0,0,.14-1,3.84,3.84,0,0,0,0-.69c0-.19-.05-.36-.08-.51a2.07,2.07,0,0,1,0-.22,1.55,1.55,0,0,1,0-.21.45.45,0,0,1,.3-.44,1.66,1.66,0,0,1,.61-.11,3.29,3.29,0,0,1,1.49.29,2,2,0,0,1,.85.75,2.71,2.71,0,0,1,.36,1.07,6.2,6.2,0,0,1,0,1.22c0,.37-.11.87-.22,1.49s-.26,1.33-.43,2.12-.37,1.64-.59,2.56-.43,1.87-.66,2.84c-.06.32-.15.71-.26,1.16s-.23.94-.36,1.45q-.25,1-.54,2.16c-.18.77-.35,1.53-.51,2.29s-.29,1.48-.38,2.18a12.93,12.93,0,0,0-.15,1.83v.41a1.36,1.36,0,0,0,.05.36c.1.65.38,1,.86,1a1.86,1.86,0,0,0,.64-.14,4.11,4.11,0,0,0,.68-.37,7.65,7.65,0,0,0,.65-.51,7.07,7.07,0,0,0,.55-.54,13.29,13.29,0,0,0,1.19-1.56c.39-.59.75-1.18,1.09-1.79s.66-1.21,1-1.8.56-1.14.8-1.62.41-.83.56-1.15a4.79,4.79,0,0,1,.37-.67.48.48,0,0,1,.21-.09l.18,0a.48.48,0,0,1,.32.13,1.38,1.38,0,0,1,.23.33,9.35,9.35,0,0,0-.47.95c-.15.35-.31.7-.49,1l-.89,1.79c-.3.61-.61,1.22-.94,1.83s-.66,1.19-1,1.77a16.08,16.08,0,0,1-1.06,1.58c-.27.33-.56.67-.86,1a8.3,8.3,0,0,1-1,.9,5.38,5.38,0,0,1-1.13.66A3.76,3.76,0,0,1,418.34,29.25Zm-3-9.65c.17-.79.36-1.62.55-2.47s.39-1.72.6-2.6a2.34,2.34,0,0,1,.13-.49,3.51,3.51,0,0,0,.13-.49,1.86,1.86,0,0,0-1.15-.36,2.81,2.81,0,0,0-1.7.66,8.93,8.93,0,0,0-1.65,1.7,16.92,16.92,0,0,0-1.48,2.33c-.47.86-.88,1.72-1.24,2.57a23.17,23.17,0,0,0-.87,2.41,9,9,0,0,0-.38,1.82,3.36,3.36,0,0,0,0,.72,3,3,0,0,0,.13.7,1.23,1.23,0,0,0,.35.53,1,1,0,0,0,.67.2,2,2,0,0,0,1.1-.38,6.17,6.17,0,0,0,1.15-1A11,11,0,0,0,412.75,24c.36-.52.71-1.05,1-1.59s.63-1.05.89-1.56l.68-1.3Z"/><path class="cls-1" d="M438.07,17.81c0,.05-.13.09-.28.14a1.15,1.15,0,0,1-.32.07.61.61,0,0,1-.5-.28,4,4,0,0,0,.13-.49c0-.16,0-.32.08-.49a6.1,6.1,0,0,0-.08-1.26,3.8,3.8,0,0,0-.4-1.19,2.72,2.72,0,0,0-.74-.87,1.76,1.76,0,0,0-1.1-.35,2.79,2.79,0,0,0-1.7.66,9.24,9.24,0,0,0-1.65,1.7A18.66,18.66,0,0,0,430,17.78c-.46.87-.87,1.72-1.23,2.58a22.25,22.25,0,0,0-.87,2.4,8.32,8.32,0,0,0-.38,1.82,5.67,5.67,0,0,0,0,.72,2.3,2.3,0,0,0,.14.71,1.12,1.12,0,0,0,.35.52,1,1,0,0,0,.67.21,2.37,2.37,0,0,0,1.57-.76,11.81,11.81,0,0,0,1.61-1.83,24.78,24.78,0,0,0,1.44-2.26c.45-.79.83-1.48,1.13-2.07a4.09,4.09,0,0,1,.23-.62,1.5,1.5,0,0,0,.1-.79A.38.38,0,0,1,435,18a2.75,2.75,0,0,1,.67-.13,3.22,3.22,0,0,1,2,.66,2,2,0,0,1,.64,1.28,5.07,5.07,0,0,1-.16,1.65c-.15.59-.27,1.14-.35,1.65,0,.12,0,.3-.08.56s-.08.53-.11.83-.05.61-.07.92a3.05,3.05,0,0,0,0,.78.59.59,0,0,0,.21.41c.11.06.26,0,.47-.17a11.49,11.49,0,0,0,1.22-1.49c.43-.62.86-1.27,1.28-2s.83-1.39,1.22-2.1l1.07-1.95c.17-.39.35-.75.53-1.09s.34-.63.47-.85a.86.86,0,0,1,.36-.07.48.48,0,0,1,.35.13,1.39,1.39,0,0,1,.23.32l-.24.53c-.23.44-.49,1-.78,1.55s-.62,1.22-1,1.87-.71,1.32-1.1,2-.78,1.3-1.17,1.91a19.27,19.27,0,0,1-1.2,1.66,8,8,0,0,1-1.16,1.21,3.71,3.71,0,0,1-1.15.67,3.54,3.54,0,0,1-1.32.27,1.63,1.63,0,0,1-1.34-.61,4,4,0,0,1-.7-1.46,6.93,6.93,0,0,1-.25-1.76,7.58,7.58,0,0,1,.07-1.51v-.06a1,1,0,0,1,0-.18,22.59,22.59,0,0,1-1.42,2.09,12.61,12.61,0,0,1-1.66,1.81,8.09,8.09,0,0,1-1.83,1.28,4.19,4.19,0,0,1-2,.49,3.45,3.45,0,0,1-1.58-.33,2.88,2.88,0,0,1-1-.89,3.68,3.68,0,0,1-.55-1.29,7.1,7.1,0,0,1-.17-1.56v-.33a2,2,0,0,1,0-.36,14.23,14.23,0,0,1,.61-2.66,22.48,22.48,0,0,1,1.19-2.95A23.64,23.64,0,0,1,427,15.8a15.26,15.26,0,0,1,2.1-2.5,10.28,10.28,0,0,1,2.4-1.75,5.67,5.67,0,0,1,2.64-.66,3.5,3.5,0,0,1,1.86.5,4.5,4.5,0,0,1,1.37,1.31,5.7,5.7,0,0,1,.8,1.79,6.18,6.18,0,0,1,.18,2,5.54,5.54,0,0,1-.29,1.29Z"/></g></g></svg>