<svg xmlns="http://www.w3.org/2000/svg" viewBox="0 0 104.54 80.15"><defs><style>.cls-1{fill:#b6d703;}</style></defs><title>tarjeta3</title><g id="Capa_2" data-name="Capa 2"><g id="Capa_1-2" data-name="Capa 1"><path class="cls-1" d="M35.1,80.14H5.46A5.34,5.34,0,0,1,.08,75.68a5,5,0,0,1,0-1q0-6.9,0-13.8C0,54.52.07,48.11,0,41.7a5.45,5.45,0,0,1,5.5-5.48H45.14c.26,0,.38-.07.43-.35a3,3,0,0,1,1.52-2.13c2.53-1.39,5.08-2.74,7.61-4.12.49-.26.48-.27.15-.68-.74-.91-1.49-1.82-2.2-2.75a.67.67,0,0,0-.85-.27l-9.71,2.72L30.07,32c-2.65.75-5.31,1.48-8,2.22a4.12,4.12,0,0,1-1,.11l-2.74,0-8.45.09a1.82,1.82,0,0,1-2-1.69Q7.16,29,6.43,25.19a3.33,3.33,0,0,1,2.44-3.91l17.38-5.49L41.47,11,49,8.62a4.55,4.55,0,0,1,1.42-.19l19.14,0h.22c.27,0,.37-.1.32-.37a3.2,3.2,0,0,1,.8-2.82A3.91,3.91,0,0,1,73.26,4c3.81-.71,7.61-1.4,11.42-2.12C87.92,1.31,91.17.7,94.41.07a3.52,3.52,0,0,1,4.23,2.85c.67,3.56,1.32,7.13,2,10.69.51,2.7,1,5.41,1.55,8.11q1.16,6.23,2.3,12.44a3.45,3.45,0,0,1-2.75,4.13c-2.56.52-5.13,1-7.69,1.45l-9.14,1.7A3.57,3.57,0,0,1,80.56,39c-.09-.28-.19-.55-.26-.83s-.29-.42-.61-.29c-1.16.47-2.33.91-3.49,1.37l-5.43,2.1a.66.66,0,0,0-.53.74c0,3.37,0,6.73,0,10.1,0,7.49,0,15,0,22.47a5.48,5.48,0,0,1-5.57,5.53C54.83,80.12,45,80.14,35.1,80.14ZM26.47,39.91H5.63c-1.38,0-2,.61-2,2q0,6.92,0,13.83c0,.95,0,1.89,0,2.83,0,.37.08.58.57.58,2.71,0,5.43,0,8.14,0,7.24,0,14.47,0,21.71,0,1.52,0,3,0,4.56,0q12.19,0,24.37,0c.43,0,.84-.08,1.27-.06.65,0,1.3,0,2,0,.31,0,.41-.14.4-.42s0-.61,0-.92V43.44c0-.5,0-.51-.45-.34-2.61,1-5.21,2-7.82,3a3.7,3.7,0,0,1-4-.56c-2-1.74-3.93-3.51-5.89-5.29a1.39,1.39,0,0,0-1-.39ZM60.72,12.07H50.58a2.24,2.24,0,0,0-.72.1L40,15.29l-9.87,3.13-7,2.22-8,2.51-4.56,1.43c-.25.08-.44.15-.37.51.35,1.78.67,3.56,1,5.34,0,.25.13.37.42.36l9.18-.13a3.89,3.89,0,0,0,1.07-.15L38.09,26l7.75-2.16c1.9-.53,3.79-1.09,5.71-1.54a3.4,3.4,0,0,1,3.61,1.26c1.08,1.33,2.14,2.66,3.23,4a3,3,0,0,1-.93,4.76c-1.05.58-2.11,1.14-3.17,1.71-1.42.77-2.83,1.54-4.26,2.29-.26.14-.37.25-.07.47s.55.47.82.72l5.69,5.12a.6.6,0,0,0,.7.12l9.68-3.77c3.88-1.51,7.76-3,11.64-4.52.38-.15.42-.33.3-.68-1-2.83-1.93-5.66-2.9-8.48q-2.19-6.41-4.37-12.8c-.12-.34-.3-.39-.61-.39ZM99.17,25.54a10.36,10.36,0,0,0-.2-1.05c-.42-2.36-.88-4.7-1.33-7-.57-3-1.13-6.07-1.69-9.1-.27-1.43-.53-2.85-.79-4.28,0-.25-.15-.37-.45-.31-.49.11-1,.18-1.49.27l-11,2.07-8,1.47c-.33.06-.46.19-.33.53a3.18,3.18,0,0,1,.1.33c.79,2.3,1.59,4.6,2.37,6.91l3.89,11.4q1.86,5.4,3.7,10.82c.13.37.31.45.68.38q7.9-1.56,15.83-3.08c.36-.07.44-.2.38-.54-.43-2.23-.86-4.44-1.25-6.67A6.43,6.43,0,0,1,99.17,25.54Zm-64,46.39h-31c-.37,0-.53.1-.51.49s0,1,0,1.43a9.9,9.9,0,0,0,0,1.22,1.69,1.69,0,0,0,1.87,1.39H64.76a1.69,1.69,0,0,0,1.86-1.87v-2c0-.61,0-.62-.64-.62H35.13Z"/><path class="cls-1" d="M11.26,53.72h5a.93.93,0,1,1,.13,1.86c-.35,0-.7,0-1.05,0H6.17a1,1,0,0,1-.85-1.45,1,1,0,0,1,1-.42h5Z"/><path class="cls-1" d="M26.54,53.72h5a.89.89,0,0,1,1,.9.9.9,0,0,1-1,1h-10a.94.94,0,1,1,0-1.87Z"/></g></g></svg>